<?xml version="1.0" encoding="UTF-8"?>
<svg id="Layer_1" data-name="Layer 1" xmlns="http://www.w3.org/2000/svg" xmlns:xlink="http://www.w3.org/1999/xlink" viewBox="0 0 402 755">
  <defs>
    <style>
      .cls-1 {
        fill: #27a066;
      }

      .cls-2 {
        stroke: #f99df9;
      }

      .cls-2, .cls-3, .cls-4, .cls-5, .cls-6, .cls-7, .cls-8, .cls-9, .cls-10 {
        fill: none;
      }

      .cls-2, .cls-3, .cls-5, .cls-6, .cls-11, .cls-8, .cls-9, .cls-12 {
        stroke-linecap: round;
        stroke-linejoin: round;
      }

      .cls-13 {
        fill: #46d1cd;
      }

      .cls-3 {
        stroke: #fc9dc4;
      }

      .cls-14 {
        fill: #3caf9f;
      }

      .cls-4 {
        stroke: #e288a0;
        stroke-width: 2px;
      }

      .cls-4, .cls-15, .cls-16, .cls-17, .cls-18, .cls-19, .cls-10 {
        stroke-miterlimit: 10;
      }

      .cls-5 {
        stroke: #ccb189;
      }

      .cls-6 {
        stroke: #c1e5e5;
      }

      .cls-20, .cls-16 {
        fill: #fff;
      }

      .cls-21 {
        fill: #ffcadd;
      }

      .cls-22 {
        fill: #32d8c4;
      }

      .cls-23 {
        fill: #e288a0;
      }

      .cls-11 {
        fill: #ffae43;
        stroke: #efa85b;
      }

      .cls-15 {
        fill: #ffe9ef;
      }

      .cls-15, .cls-17 {
        stroke: #0caa9e;
      }

      .cls-16 {
        stroke: #bcbcbc;
      }

      .cls-16, .cls-8 {
        stroke-width: .75px;
      }

      .cls-24 {
        fill: #65d670;
      }

      .cls-17 {
        fill: #d4fffe;
      }

      .cls-8, .cls-9 {
        stroke: #00a063;
      }

      .cls-25 {
        fill: #f9e4e8;
      }

      .cls-26 {
        fill: #ed9fac;
      }

      .cls-18 {
        fill: #2bc6d6;
      }

      .cls-18, .cls-19 {
        stroke: #098b8e;
      }

      .cls-27 {
        fill: #00b2bf;
      }

      .cls-19 {
        fill: #00b1ba;
      }

      .cls-28 {
        fill: #19abba;
      }

      .cls-10 {
        stroke: #27a066;
      }

      .cls-29 {
        fill: #ffccfe;
      }

      .cls-30 {
        fill: #00ce70;
      }

      .cls-31 {
        fill: #f9d7a0;
      }

      .cls-32 {
        clip-path: url(#clippath);
      }

      .cls-12 {
        fill: #ffff40;
        stroke: #f2dc5a;
      }
    </style>
    <clipPath id="clippath">
      <rect class="cls-7" width="402" height="755"/>
    </clipPath>
  </defs>
  <g class="cls-32">
    <rect class="cls-13" width="402" height="755"/>
    <g>
      <path class="cls-27" d="M357.446,71.119l-18.517-6.553c-5.388-1.907-10.563-14.834-8.656-20.223l8.905-11.504c1.907-5.388,7.821-8.211,13.209-6.304l18.872-.168c5.388,1.907,7.856,14.541,5.949,19.929l-6.553,18.517c-1.907,5.388-7.821,8.211-13.209,6.304Z"/>
      <path class="cls-27" d="M296.148,69.772l-15.883-11.557c-4.622-3.363-5.898-17.229-2.535-21.851l11.813-8.49c3.363-4.622,9.836-5.642,14.458-2.279l18.138,5.216c4.622,3.363,3.387,16.177.024,20.798l-11.557,15.883c-3.363,4.622-9.836,5.642-14.458,2.279Z"/>
      <g>
        <rect class="cls-16" x="332.674" y="20.705" width="40.341" height="40.341" rx="10.349" ry="10.349" transform="translate(33.848 -115.366) rotate(19.487)"/>
        <circle cx="348.036" cy="29.001" r="4.521"/>
        <circle cx="357.654" cy="52.751" r="4.521"/>
      </g>
      <g>
        <rect class="cls-16" x="280.607" y="18.801" width="40.341" height="40.341" rx="10.349" ry="10.349" transform="translate(80.501 -169.509) rotate(36.041)"/>
        <circle cx="299.682" cy="25.108" r="4.521"/>
        <circle cx="302.411" cy="52.51" r="4.521"/>
        <circle cx="301.047" cy="38.809" r="4.521"/>
      </g>
    </g>
    <g>
      <path class="cls-31" d="M106.963,606.416c-2.425,9.051-5.126,10.61-14.177,8.185,9.051,2.425,10.61,5.126,8.185,14.177,2.425-9.051,5.126-10.61,14.177-8.185-9.051-2.425-10.61-5.126-8.185-14.177Z"/>
      <path class="cls-5" d="M106.963,606.416c-2.425,9.051-5.126,10.61-14.177,8.185,9.051,2.425,10.61,5.126,8.185,14.177,2.425-9.051,5.126-10.61,14.177-8.185-9.051-2.425-10.61-5.126-8.185-14.177Z"/>
    </g>
    <g>
      <path class="cls-18" d="M101.096,818.184c-11.458,0-22.15-2.716-32.488-5.343-2.364-.6-4.714-1.198-7.053-1.757-12.721-3.038-26.136-6.536-38.024-12.882-11.879-6.341-20.887-15.395-29.6-24.149l-1.656-1.662c-2.371-2.376-4.911-4.719-7.366-6.982-7.694-7.095-15.65-14.432-20.047-24.232-6.006-13.383-6.006-28.607-6.006-42.039,0-13.932.495-28.64,6.42-41.844,5.876-13.096,14.1-25.148,23.784-34.855,7.772-7.789,17.928-12.992,27.751-18.022,2.355-1.205,4.719-2.416,7.06-3.667,12.572-6.711,24.05-12.522,37.215-15.666,7.742-1.849,15.717-2.087,21.8-2.087,2.997,0,6.066.065,9.033.127,3.002.063,6.107.128,9.175.128h3.069c11.422-.001,24.367-.001,36.693,2.944,3.3.788,6.71,1.492,10.009,2.173,9.959,2.056,20.257,4.182,29.168,8.94,10.697,5.711,21.429,14.032,32.811,25.439,9.257,9.278,14.428,20.957,19.431,32.252.554,1.25,1.104,2.496,1.659,3.731,4.69,10.452,10.072,24.489,10.072,40.407,0,16.059-5.352,30.045-10.014,40.436-1.025,2.284-2,4.595-3.033,7.043-4.413,10.457-8.976,21.27-17.382,29.696-8.908,8.927-20.122,15.77-34.219,23.296-10.718,5.723-23.214,10.245-38.199,13.823-13.203,3.153-26.682,4.751-40.063,4.751Z"/>
      <path class="cls-19" d="M82.889,587.021c5.964,0,12.043.254,18.207.254,1.022,0,2.042,0,3.056,0,12.456,0,24.366.103,35.834,2.842,13.233,3.16,26.979,4.742,38.27,10.77,12.101,6.461,22.774,15.619,31.889,24.754,9.735,9.756,14.861,22.736,20.268,34.787,5.527,12.318,9.711,24.821,9.711,38.711s-4.125,26.423-9.652,38.741c-5.407,12.051-9.86,25.787-19.594,35.543-9.115,9.135-21.197,16.152-33.298,22.612-11.291,6.028-24.059,10.319-37.292,13.479-12.401,2.962-25.624,4.648-39.191,4.648s-26.267-4.035-38.668-6.996c-13.233-3.16-25.826-6.509-37.117-12.537-12.101-6.461-21.22-15.992-30.335-25.127-9.735-9.756-21.184-17.966-26.591-30.018-5.527-12.318-5.644-26.455-5.644-40.345s.531-27.83,6.058-40.147c5.407-12.051,13.228-23.903,22.963-33.659,9.115-9.135,21.788-14.544,33.889-21.004,11.291-6.028,23.075-12.163,36.308-15.323,6.768-1.616,13.766-1.983,20.93-1.983M82.889,578.976c-6.289,0-14.551.249-22.675,2.189-13.605,3.249-25.314,9.174-38.121,16.011-2.303,1.23-4.692,2.453-7.002,3.636-10.089,5.168-20.522,10.511-28.73,18.737-10.022,10.044-18.53,22.51-24.606,36.05-6.258,13.947-6.781,29.156-6.781,43.538,0,13.848,0,29.544,6.367,43.736,4.736,10.556,12.998,18.174,20.987,25.541,2.426,2.237,4.935,4.55,7.247,6.868l1.653,1.66c8.915,8.959,18.134,18.222,30.524,24.837,12.286,6.559,25.969,10.13,38.93,13.226,2.302.55,4.581,1.129,6.994,1.742,10.565,2.684,21.489,5.46,33.419,5.46,13.677,0,27.449-1.633,40.936-4.854,15.302-3.654,28.094-8.289,39.105-14.167,14.401-7.689,25.888-14.709,35.14-23.982,8.957-8.977,13.889-20.664,18.24-30.975,1.024-2.426,1.99-4.717,2.997-6.96,4.831-10.767,10.376-25.285,10.376-42.132,0-16.704-5.576-31.274-10.434-42.102-.55-1.226-1.097-2.462-1.647-3.703-4.912-11.094-10.48-23.669-20.264-33.475-11.658-11.684-22.692-20.229-33.732-26.123-9.396-5.016-19.964-7.199-30.184-9.309-3.271-.675-6.653-1.374-9.899-2.149-12.76-3.047-25.945-3.047-37.578-3.047h-1.525s-1.531,0-1.531,0c-3.028,0-6.113-.065-9.096-.127-2.987-.063-6.075-.127-9.111-.127h0Z"/>
    </g>
    <g>
      <path class="cls-30" d="M150.898,623.326c-3.312,9.289-11.281-7.512-1.992-4.2-9.289-3.312,7.512-11.281,4.2-1.992,3.312-9.289,11.281,7.512,1.992,4.2,9.289,3.312-7.512,11.281-4.2,1.992Z"/>
      <path class="cls-9" d="M150.898,623.326c-3.312,9.289-11.281-7.512-1.992-4.2-9.289-3.312,7.512-11.281,4.2-1.992,3.312-9.289,11.281,7.512,1.992,4.2,9.289,3.312-7.512,11.281-4.2,1.992Z"/>
    </g>
    <g>
      <path class="cls-30" d="M201.348,664.797c5.087,18.986-27.01.455-8.024-4.633-18.986,5.087-.455-27.01,4.633-8.024-5.087-18.986,27.01-.455,8.024,4.633,18.986-5.087.455,27.01-4.633,8.024Z"/>
      <path class="cls-9" d="M201.348,664.797c5.087,18.986-27.01.455-8.024-4.633-18.986,5.087-.455-27.01,4.633-8.024-5.087-18.986,27.01-.455,8.024,4.633,18.986-5.087.455,27.01-4.633,8.024Z"/>
    </g>
    <g>
      <path class="cls-21" d="M40.189,724.445c16.063,17.336-14.664,24.327-7.682,1.748-6.982,22.579-28.4-.536-5.354-5.779-23.045,5.243-13.736-24.863,2.327-7.526-16.063-17.336,14.664-24.327,7.682-1.748,6.982-22.579,28.4.536,5.354,5.779,23.045-5.243,13.736,24.863-2.327,7.526Z"/>
      <path class="cls-3" d="M40.189,724.445c16.063,17.336-14.664,24.327-7.682,1.748-6.982,22.579-28.4-.536-5.354-5.779-23.045,5.243-13.736-24.863,2.327-7.526-16.063-17.336,14.664-24.327,7.682-1.748,6.982-22.579,28.4.536,5.354,5.779,23.045-5.243,13.736,24.863-2.327,7.526Z"/>
    </g>
    <g>
      <path class="cls-29" d="M50.514,668.089c7.296,7.874-6.66,11.049-3.489.794-3.171,10.256-12.899-.243-2.432-2.625-10.467,2.381-6.239-11.293,1.057-3.419-7.296-7.874,6.66-11.049,3.489-.794,3.171-10.256,12.899.243,2.432,2.625,10.467-2.381,6.239,11.293-1.057,3.419Z"/>
      <path class="cls-2" d="M50.514,668.089c7.296,7.874-6.66,11.049-3.489.794-3.171,10.256-12.899-.243-2.432-2.625-10.467,2.381-6.239-11.293,1.057-3.419-7.296-7.874,6.66-11.049,3.489-.794,3.171-10.256,12.899.243,2.432,2.625,10.467-2.381,6.239,11.293-1.057,3.419Z"/>
    </g>
    <g>
      <g>
        <ellipse class="cls-12" cx="119.658" cy="684.576" rx="11.473" ry="16.132" transform="translate(-573.597 635.989) rotate(-76.076)"/>
        <path class="cls-11" d="M101.127,682.606c-3.611-.895-6.264-2.728-5.925-4.093s3.54-1.747,7.151-.851c3.611.895,2.385,5.84-1.226,4.945Z"/>
        <circle class="cls-12" cx="111.324" cy="682.351" r="8.625"/>
      </g>
      <path class="cls-28" d="M108.617,700.893c8.316,3.647,17.449,5.418,26.526,5.143.225-1.209-.451-2.449-1.415-3.213s-2.173-1.14-3.363-1.449c-4.9-1.274-9.992-.777-14.837-1.985-1.715-.427-3.334-.973-5.104-1.183-.808-.096-2.777-.55-3.318.371-.6,1.022.697,1.959,1.512,2.316Z"/>
      <path class="cls-28" d="M129.376,699.204c4.33.29,8.917-.134,13.321-1.233.018-.427-.405-.764-.933-.911s-1.146-.138-1.749-.109c-2.485.12-4.93.85-7.384.986-.869.048-1.699.046-2.578.173-.401.058-1.396.125-1.59.491-.215.406.488.574.912.602Z"/>
    </g>
    <g>
      <path class="cls-20" d="M93.652,616.79c-2.425,9.051-5.126,10.61-14.177,8.185,9.051,2.425,10.61,5.126,8.185,14.177,2.425-9.051,5.126-10.61,14.177-8.185-9.051-2.425-10.61-5.126-8.185-14.177Z"/>
      <path class="cls-6" d="M93.652,616.79c-2.425,9.051-5.126,10.61-14.177,8.185,9.051,2.425,10.61,5.126,8.185,14.177,2.425-9.051,5.126-10.61,14.177-8.185-9.051-2.425-10.61-5.126-8.185-14.177Z"/>
    </g>
    <g>
      <path class="cls-20" d="M129.234,613.479c-5.974-1.601-7.003-3.383-5.402-9.357-1.601,5.974-3.383,7.003-9.357,5.402,5.974,1.601,7.003,3.383,5.402,9.357,1.601-5.974,3.383-7.003,9.357-5.402Z"/>
      <path class="cls-6" d="M129.234,613.479c-5.974-1.601-7.003-3.383-5.402-9.357-1.601,5.974-3.383,7.003-9.357,5.402,5.974,1.601,7.003,3.383,5.402,9.357,1.601-5.974,3.383-7.003,9.357-5.402Z"/>
    </g>
    <g>
      <g>
        <g>
          <path class="cls-26" d="M36.154,550.115l.938-.346c.912-.336,1.649-.958,2.078-1.753.406-.754.48-1.573.21-2.308-.416-1.131-1.582-1.861-2.972-1.861-.474,0-.945.086-1.403.255l-.938.346-2.096-5.69.938-.346c.912-.336,1.649-.958,2.078-1.753.406-.753.48-1.572.21-2.308-.416-1.13-1.583-1.86-2.973-1.86-.473,0-.944.085-1.402.254l-.938.346-2.851-7.74.938-.346c.912-.336,1.649-.958,2.078-1.753.406-.754.48-1.573.21-2.308-.416-1.131-1.582-1.861-2.972-1.861-.474,0-.945.086-1.403.255l-.938.346-2.851-7.74.938-.346c.912-.336,1.649-.958,2.078-1.753.406-.754.48-1.573.21-2.308-.416-1.131-1.582-1.861-2.972-1.861-.474,0-.945.086-1.403.255l-.938.346-2.782-7.556,5.404-1.991.346.938c.416,1.131,1.583,1.861,2.973,1.861.473,0,.944-.085,1.402-.254,1.837-.676,2.863-2.498,2.288-4.061l-.346-.938,8.514-3.136.346.938c.416,1.131,1.583,1.861,2.973,1.861.474,0,.945-.085,1.402-.254,1.837-.677,2.863-2.499,2.287-4.061l-.346-.938,8.515-3.136.346.938c.416,1.131,1.582,1.861,2.972,1.861.473,0,.944-.086,1.402-.255.912-.336,1.649-.958,2.078-1.753.406-.753.48-1.572.21-2.308l-.346-.938,5.404-1.99,2.783,7.556-.938.346c-1.837.677-2.864,2.499-2.288,4.061.416,1.131,1.583,1.861,2.972,1.861.474,0,.945-.086,1.403-.255l.938-.346,2.851,7.74-.938.346c-1.837.677-2.864,2.499-2.288,4.061.417,1.131,1.584,1.861,2.974,1.861.473,0,.944-.085,1.401-.254l.938-.346,2.851,7.739-.938.346c-1.837.677-2.864,2.499-2.288,4.061.416,1.131,1.583,1.861,2.973,1.861.473,0,.944-.085,1.402-.254l.938-.346,2.096,5.689-.938.346c-1.837.677-2.864,2.499-2.288,4.061.417,1.131,1.584,1.861,2.974,1.861.473,0,.944-.085,1.401-.254l.938-.346,2.782,7.556-5.404,1.99-.346-.938c-.416-1.131-1.583-1.861-2.973-1.861-.473,0-.944.085-1.402.254-1.837.677-2.863,2.499-2.287,4.061l.346.938-8.514,3.136-.346-.938c-.416-1.131-1.583-1.861-2.973-1.861-.473,0-.944.086-1.402.255-.912.336-1.649.958-2.078,1.752-.406.754-.48,1.573-.21,2.308l.346.938-8.514,3.136-.346-.938c-.416-1.13-1.583-1.86-2.973-1.86-.473,0-.944.085-1.402.254-.912.336-1.649.958-2.078,1.753-.406.753-.48,1.572-.21,2.308l.346.938-5.404,1.99-2.783-7.556Z"/>
          <path class="cls-23" d="M64.459,482.392l2.091,5.679c-2.358.868-3.648,3.261-2.881,5.345.578,1.569,2.158,2.515,3.911,2.515.574,0,1.167-.102,1.748-.316l2.159,5.863c-2.358.868-3.648,3.261-2.881,5.345.578,1.569,2.158,2.515,3.911,2.515.574,0,1.167-.102,1.748-.316l2.159,5.863c-2.358.868-3.648,3.261-2.881,5.345.578,1.569,2.158,2.515,3.911,2.515.574,0,1.166-.102,1.748-.316l1.404,3.813c-2.358.868-3.648,3.261-2.881,5.345.578,1.569,2.158,2.515,3.911,2.515.574,0,1.167-.102,1.748-.316l2.091,5.679-3.527,1.299c-.578-1.569-2.158-2.515-3.911-2.515-.574,0-1.167.102-1.748.316-2.358.868-3.648,3.261-2.881,5.345l-6.637,2.444c-.578-1.569-2.158-2.515-3.911-2.515-.574,0-1.167.102-1.748.316-2.358.868-3.648,3.261-2.881,5.345l-6.637,2.444c-.578-1.569-2.158-2.515-3.911-2.515-.574,0-1.167.102-1.748.316-2.358.868-3.648,3.261-2.881,5.345l-3.527,1.299-2.091-5.679c2.358-.868,3.648-3.261,2.881-5.345-.578-1.569-2.158-2.515-3.911-2.515-.574,0-1.167.102-1.748.316l-1.404-3.813c2.358-.868,3.648-3.261,2.881-5.345-.578-1.569-2.158-2.515-3.911-2.515-.574,0-1.167.102-1.748.316l-2.159-5.863c2.358-.868,3.648-3.261,2.881-5.345-.578-1.569-2.158-2.515-3.911-2.515-.574,0-1.167.102-1.748.316l-2.159-5.863c2.358-.868,3.648-3.261,2.881-5.345-.578-1.569-2.158-2.515-3.911-2.515-.574,0-1.167.102-1.748.316l-2.091-5.679,3.527-1.299c.578,1.569,2.158,2.515,3.911,2.515.574,0,1.167-.102,1.748-.316,2.358-.868,3.648-3.261,2.881-5.345l6.637-2.444c.578,1.569,2.158,2.515,3.911,2.515.574,0,1.167-.102,1.748-.316,2.358-.868,3.648-3.261,2.881-5.345l6.637-2.444c.578,1.569,2.158,2.515,3.911,2.515.574,0,1.167-.102,1.748-.316,2.358-.868,3.648-3.261,2.881-5.345l3.527-1.299M65.644,479.824l-1.877.691-3.527,1.299-1.877.691.691,1.877c.378,1.027-.398,2.299-1.695,2.777-.347.128-.702.192-1.057.192-.966,0-1.764-.474-2.034-1.207l-.691-1.877-1.877.691-6.637,2.444-1.877.691.691,1.877c.229.623.003,1.2-.152,1.488-.312.58-.86,1.038-1.543,1.289-.347.128-.702.192-1.057.192-.966,0-1.764-.474-2.034-1.206l-.691-1.877-1.877.691-6.637,2.444-1.877.691.691,1.877c.378,1.027-.398,2.299-1.695,2.777-.347.128-.703.192-1.057.192-.966,0-1.764-.474-2.034-1.206l-.691-1.877-1.877.691-3.527,1.299-1.877.691.691,1.877,2.091,5.679.691,1.877,1.877-.691c.347-.128.703-.192,1.057-.192.966,0,1.764.474,2.034,1.206.378,1.027-.398,2.299-1.695,2.777l-1.877.691.691,1.877,2.159,5.863.691,1.877,1.877-.691c.347-.128.703-.193,1.057-.193.966,0,1.764.474,2.034,1.207.229.623.003,1.2-.152,1.488-.312.58-.861,1.038-1.543,1.289l-1.877.691.691,1.877,2.159,5.863.691,1.877,1.877-.691c.347-.128.703-.193,1.057-.193.966,0,1.764.474,2.034,1.206.378,1.027-.398,2.299-1.695,2.777l-1.877.691.691,1.877,1.404,3.813.691,1.877,1.877-.691c.347-.128.702-.193,1.057-.193.966,0,1.764.474,2.034,1.206.378,1.027-.398,2.299-1.695,2.777l-1.877.691.691,1.877,2.091,5.679.691,1.877,1.877-.691,3.527-1.299,1.877-.691-.691-1.877c-.378-1.027.398-2.299,1.695-2.777.347-.128.703-.193,1.057-.193.966,0,1.764.474,2.034,1.207l.691,1.877,1.877-.691,6.637-2.444,1.877-.691-.691-1.877c-.229-.623-.003-1.2.152-1.488.312-.58.86-1.038,1.543-1.289.347-.128.703-.193,1.057-.193.966,0,1.764.474,2.034,1.206l.691,1.877,1.877-.691,6.637-2.444,1.877-.691-.691-1.877c-.378-1.027.398-2.299,1.695-2.777.347-.128.703-.193,1.057-.193.966,0,1.764.474,2.034,1.206l.691,1.877,1.877-.691,3.527-1.299,1.877-.691-.691-1.877-2.091-5.679-.691-1.877-1.877.691c-.347.128-.702.192-1.057.192-.966,0-1.764-.474-2.034-1.206-.229-.623-.003-1.2.152-1.488.312-.58.86-1.038,1.543-1.289l1.877-.691-.691-1.877-1.404-3.813-.691-1.877-1.877.691c-.347.128-.702.192-1.057.192-.966,0-1.764-.474-2.034-1.206-.229-.623-.003-1.2.152-1.488.312-.58.86-1.038,1.543-1.289l1.877-.691-.691-1.877-2.159-5.863-.691-1.877-1.877.691c-.347.128-.702.192-1.057.192-.966,0-1.764-.474-2.034-1.206-.229-.623-.003-1.2.152-1.488.312-.58.86-1.038,1.543-1.289l1.877-.691-.691-1.877-2.159-5.863-.691-1.877-1.877.691c-.347.128-.702.192-1.057.192-.966,0-1.764-.474-2.034-1.206-.378-1.027.398-2.299,1.695-2.777l1.877-.691-.691-1.877-2.091-5.679-.691-1.877h0Z"/>
        </g>
        <rect class="cls-25" x="35.65" y="496.069" width="32.688" height="46.64" transform="translate(-176.288 49.969) rotate(-20.217)"/>
      </g>
      <g>
        <g>
          <path class="cls-26" d="M53.646,526.019c-2.054,1.57-5.41,1.368-7.042-.424-.645-.708-1.615-2.371-.35-5.231-2.01,1.092-3.471.938-4.403.551-1.38-.574-2.343-1.983-2.574-3.769-.247-1.898.409-3.749,1.671-4.714.853-.652,2.445-1.279,4.969-.16-.59-1.092-.865-2.124-.819-3.089.054-1.161.579-2.153,1.517-2.871,2.054-1.571,5.411-1.368,7.043.424.644.707,1.614,2.37.35,5.228,3.543-1.93,5.435-.023,5.976.683,1.64,2.145,1.308,5.737-.671,7.251h-.001c-.853.653-2.444,1.28-4.968.16.591,1.092.865,2.124.82,3.089-.054,1.16-.579,2.153-1.517,2.871h0Z"/>
          <path class="cls-23" d="M47.045,506.873c3.306-2.528,11.52.169,3.426,8.924.871-.942,1.689-1.692,2.448-2.273,6.938-5.307,9.189,3.347,5.965,5.812-1.532,1.171-4.298.947-8.385-2.832,4.879,4.511,4.561,7.543,2.719,8.952-3.306,2.528-11.52-.169-3.426-8.924-.871.942-1.689,1.692-2.448,2.273-6.939,5.306-9.189-3.347-5.965-5.812,1.532-1.171,4.298-.947,8.385,2.832-4.879-4.511-4.561-7.543-2.719-8.952M46.186,505.749c-1.094.836-1.731,2.044-1.794,3.4-.029.631.059,1.283.266,1.954-1.987-.451-3.339.155-4.138.766-2.305,1.762-2.696,5.768-.804,8.242.881,1.153,2.161,1.792,3.604,1.8.57.003,1.159-.09,1.765-.279-.522,2.312.375,3.756.996,4.438,1.861,2.043,5.672,2.286,7.996.51,1.094-.836,1.731-2.044,1.794-3.4.029-.631-.059-1.283-.266-1.954,1.987.451,3.339-.155,4.138-.766,2.305-1.762,2.695-5.768.804-8.242-1.06-1.387-2.915-2.274-5.37-1.514.526-2.316-.373-3.763-.995-4.446-1.861-2.044-5.672-2.286-7.996-.51h0Z"/>
        </g>
        <path class="cls-4" d="M55.789,521.224c3.098,2.737,4.568,7.194,3.705,11.236"/>
      </g>
    </g>
    <g>
      <g>
        <path class="cls-24" d="M357.321,432.867c-2.427,0-5.29-1.144-6.215-3.696-.478-1.317-.642-3.763,2.076-7.231-1.774.941-3.394,1.416-4.842,1.416-1.68,0-3.073-.655-4.031-1.894-.823-1.064-1.276-2.519-1.276-4.093,0-3.151,1.883-6.502,5.372-6.502,1.694,0,3.572.805,5.555,2.362-1.813-3.416-1.603-5.694-.937-7.118.875-1.869,2.984-3.03,5.507-3.03,2.427,0,5.29,1.144,6.215,3.696.478,1.317.642,3.764-2.076,7.232,1.774-.941,3.395-1.416,4.843-1.416,1.679,0,3.073.655,4.03,1.894.823,1.064,1.277,2.518,1.277,4.092,0,3.152-1.883,6.503-5.373,6.503-1.694,0-3.572-.806-5.555-2.362,1.814,3.417,1.604,5.694.937,7.119-.875,1.868-2.984,3.028-5.505,3.028h-.002Z"/>
        <path class="cls-1" d="M358.53,403.581c5.108.001,10.49,5.135-.061,13.94,3.852-3.215,6.842-4.428,9.042-4.427,6.77.001,6.059,11.488-.065,11.488-2.297,0-5.357-1.618-9.067-6.064,8.012,9.602,3.591,13.85-1.058,13.85-5.108,0-10.49-5.135.061-13.94-3.852,3.215-6.842,4.427-9.042,4.427-6.771,0-6.059-11.489.065-11.488,2.297,0,5.357,1.618,9.067,6.064-8.012-9.602-3.591-13.851,1.058-13.85M358.53,402.581h-.002c-2.718,0-5,1.271-5.958,3.317-.596,1.274-.863,3.173.164,5.85-1.51-.919-2.956-1.381-4.33-1.382h-.001c-2.024,0-3.734,1.03-4.814,2.901-1.367,2.367-1.416,5.591-.117,7.84,1.022,1.771,2.751,2.747,4.868,2.747,1.042,0,2.163-.23,3.358-.688-1.632,2.675-1.583,4.735-1.062,6.175,1.008,2.781,4.084,4.026,6.685,4.026,2.718,0,5.002-1.271,5.959-3.318.596-1.274.863-3.172-.164-5.849,1.51.919,2.956,1.381,4.33,1.381,3.814,0,5.872-3.607,5.872-7.001,0-3.124-1.817-6.486-5.807-6.486-1.042,0-2.163.23-3.358.688,1.631-2.675,1.583-4.734,1.062-6.173-1.008-2.781-4.083-4.026-6.685-4.027h0Z"/>
      </g>
      <path class="cls-10" d="M364.662,426.326c3.641,4.57,9.828,6.965,15.598,6.037"/>
    </g>
    <g>
      <g>
        <ellipse class="cls-12" cx="159.922" cy="724.256" rx="16.132" ry="11.473"/>
        <path class="cls-11" d="M141.461,726.803c-3.72,0-6.736-1.14-6.736-2.547s3.016-2.547,6.736-2.547,3.72,5.094,0,5.094Z"/>
        <circle class="cls-12" cx="151.297" cy="724.101" r="8.625"/>
      </g>
      <path class="cls-28" d="M168.342,740.256c8.499-2.337,16.813-6.374,24.147-11.726-.367-.924-1.488-1.355-2.629-1.309s-2.306.488-3.426.962c-4.609,1.953-8.567,5.181-13.1,7.146-1.605.696-3.184,1.259-4.735,2.129-.708.397-2.534,1.22-2.558,2.135-.027,1.015,1.466.892,2.299.663Z"/>
    </g>
    <g>
      <path class="cls-15" d="M56.025,275.856h45.368c0-.044.003-.087.003-.131,0-12.589-5.079-23.99-13.296-32.273l-32.238,32.238.163.166Z"/>
      <path class="cls-17" d="M55.862,275.69l32.238-32.238c-8.275-8.342-19.734-13.519-32.405-13.555v45.624l.166.169Z"/>
      <polygon class="cls-17" points="55.695 275.856 56.025 275.856 55.862 275.69 55.695 275.856"/>
      <path class="cls-17" d="M87.831,308.267c8.346-8.276,13.525-19.737,13.561-32.411h-45.368l31.806,32.411Z"/>
      <polygon class="cls-17" points="55.695 275.521 55.695 275.856 55.862 275.69 55.695 275.521"/>
      <path class="cls-17" d="M23.291,308.261c8.283,8.217,19.684,13.296,32.273,13.296.044,0,.087-.003.131-.003v-45.697l-32.405,32.405Z"/>
      <path class="cls-15" d="M56.025,275.856h-.329v45.697c12.534-.035,23.882-5.102,32.136-13.286l-31.806-32.411Z"/>
      <path class="cls-15" d="M9.736,275.856c.036,12.67,5.213,24.129,13.555,32.405l32.405-32.405H9.736Z"/>
      <path class="cls-17" d="M55.695,275.521l-32.055-32.664c-8.573,8.328-13.907,19.972-13.907,32.869,0,.044.003.087.003.131h45.959v-.336Z"/>
      <path class="cls-15" d="M55.695,229.897c-.044,0-.087-.003-.131-.003-12.416,0-23.671,4.945-31.924,12.963l32.055,32.664v-45.624Z"/>
    </g>
    <g>
      <path class="cls-22" d="M48.837,292.429l-6.348,2.939,1.334-1.415c1.893-2.007,5.252-8.166,7.476-12.242.766-1.403,1.438-2.637,1.911-3.449-1.294-1.075-1.775-2.91-1.139-4.497.609-1.504,2.047-2.476,3.661-2.476.194,0,.389.015.581.043.735-1.903,1.468-3.883,2.053-5.467.498-1.346.878-2.374,1.083-2.877-.251.078-.585.213-.873.33-.659.267-1.341.543-1.814.543-.248,0-.441-.073-.577-.218-.104-.112-.152-.262-.136-.423.099-.957,3.711-3.607,5.259-4.702-.003-.001.307-.272.774-.272.143,0,.284.025.422.075.582.208.751.749.759,1.035.502,2.845,1.004,6.424.51,7.014l-.112.134-.259.043c-.537-.036-.857-.668-1.379-1.784-.144-.306-.338-.721-.492-.979-.229.571-.682,1.616-1.273,2.981-.663,1.528-1.479,3.413-2.246,5.245,1.47,1.036,2.067,2.991,1.388,4.687-.601,1.503-2.038,2.474-3.661,2.474-.089,0-.18-.003-.27-.009-.217.906-.579,2.25-.991,3.778-1.212,4.498-3.043,11.294-3.064,14.058l-.016,1.935-2.56-6.505Z"/>
      <path class="cls-14" d="M62.083,258.623c.091,0,.19.015.296.053.495.177.51.693.51.693,0,0,1.193,6.805.514,6.805-.002,0-.005,0-.007,0-.598-.041-1.422-2.957-1.929-2.957-.082,0-.156.077-.22.256-.267.759-2.117,4.881-3.702,8.686,1.499.875,2.174,2.736,1.507,4.402-.557,1.391-1.899,2.238-3.313,2.238-.186,0-.373-.015-.559-.044-.737,3.254-4.111,14.383-4.141,18.242l-1.997-5.074-4.944,2.289c2.651-2.812,7.89-13.186,9.608-16.044-1.343-.923-1.915-2.687-1.285-4.261.565-1.392,1.901-2.24,3.314-2.24.271,0,.545.031.816.096,1.492-3.841,3-8.096,3.333-8.833.121-.275.051-.378-.14-.378-.573,0-2.23.937-2.98.937-.133,0-.238-.03-.303-.099-.552-.591,5.065-4.563,5.065-4.563,0,0,.222-.203.558-.203M62.083,257.873h0c-.514,0-.877.247-1.015.357-5.265,3.725-5.36,4.649-5.391,4.953-.028.27.056.525.234.717.144.154.408.338.851.338.547,0,1.231-.277,1.955-.57.026-.01.052-.021.079-.032-.206.544-.469,1.254-.776,2.086-.564,1.525-1.253,3.387-1.953,5.207-.111-.009-.223-.013-.334-.013-1.768,0-3.342,1.063-4.009,2.708-.657,1.639-.227,3.518,1.01,4.715-.463.808-1.077,1.934-1.766,3.196-2.214,4.058-5.559,10.19-7.418,12.161l-2.668,2.829,3.529-1.634,4.223-1.955,1.706,4.334,1.417,3.601.03-3.87c.021-2.716,1.846-9.488,3.053-13.969.369-1.369.698-2.591.92-3.485,1.767-.009,3.331-1.07,3.987-2.709.705-1.761.153-3.778-1.278-4.949.733-1.745,1.502-3.521,2.132-4.975.392-.905.724-1.67.965-2.239.042.087.081.172.117.249.529,1.129.911,1.945,1.66,1.997l.026.002h.033c.252,0,.492-.113.658-.311.212-.253.709-.844-.426-7.334-.034-.394-.275-1.048-1.002-1.309-.179-.064-.364-.097-.549-.097h0Z"/>
    </g>
    <g>
      <path class="cls-30" d="M67.617,243.448c-1.321,6.527-8.381-3.194-1.765-2.43-6.616-.764,3.967-8.448,2.646-1.921,1.321-6.527,8.381,3.194,1.765,2.43,6.616.764-3.967,8.448-2.646,1.921Z"/>
      <path class="cls-8" d="M67.617,243.448c-1.321,6.527-8.381-3.194-1.765-2.43-6.616-.764,3.967-8.448,2.646-1.921,1.321-6.527,8.381,3.194,1.765,2.43,6.616.764-3.967,8.448-2.646,1.921Z"/>
    </g>
    <g>
      <path class="cls-30" d="M68.062,311.191c.015,6.66-8.851-1.448-2.217-2.027-6.634.579,2.191-9.072,2.206-2.413-.015-6.66,8.851,1.448,2.217,2.027,6.634-.579-2.191,9.072-2.206,2.413Z"/>
      <path class="cls-8" d="M68.062,311.191c.015,6.66-8.851-1.448-2.217-2.027-6.634.579,2.191-9.072,2.206-2.413-.015-6.66,8.851,1.448,2.217,2.027,6.634-.579-2.191,9.072-2.206,2.413Z"/>
    </g>
    <g>
      <path class="cls-30" d="M21.873,265.908c.015,6.66-8.851-1.448-2.217-2.027-6.634.579,2.191-9.072,2.206-2.413-.015-6.66,8.851,1.448,2.217,2.027,6.634-.579-2.191,9.072-2.206,2.413Z"/>
      <path class="cls-8" d="M21.873,265.908c.015,6.66-8.851-1.448-2.217-2.027-6.634.579,2.191-9.072,2.206-2.413-.015-6.66,8.851,1.448,2.217,2.027,6.634-.579-2.191,9.072-2.206,2.413Z"/>
    </g>
  </g>
</svg>