<svg width="60" height="60" viewBox="0 0 60 60" fill="none" xmlns="http://www.w3.org/2000/svg">
<path d="M0 30C0 13.4315 13.4315 0 30 0C46.5685 0 60 13.4315 60 30C60 46.5685 46.5685 60 30 60C13.4315 60 0 46.5685 0 30Z" fill="#FAA2B8"/>
<path d="M38.4964 11H26.2454C25.2604 11 24.3158 11.4214 23.6193 12.1712L21.5347 14.4157H35.0372V17.9694L37.7668 15.0305C38.2339 14.5276 38.4966 13.8452 38.4966 13.1337L38.4964 11Z" fill="white"/>
<path d="M23.4698 20.8489L21.4725 22.9994H33.6617C34.7258 22.9994 35.7465 22.5442 36.4991 21.7339L38.4964 19.5835H26.3072C25.2431 19.5835 24.2224 20.0386 23.4698 20.8489Z" fill="white"/>
<path d="M42 39.2436H38.1722V34.0256L35.8914 35.8617C35.2579 36.5438 34.9019 37.4692 34.9019 38.4341V51L37.1432 48.5871C37.7666 47.9159 38.1214 47.0093 38.1325 46.0601L38.1609 43.6009C38.1681 42.9775 38.4053 42.3828 38.8204 41.9478L42 39.2436Z" fill="white"/>
<path d="M24.9031 34.3397H33.1307C34.5538 34.3397 35.9185 33.7311 36.9249 32.6475C37.9312 31.5641 38.4966 30.0946 38.4966 28.5624V24.6129H22.5912C21.6441 24.6129 20.7359 25.018 20.0661 25.739L18 27.9637H35.128V30.924H26.2303C25.2832 30.924 24.3748 31.3292 23.7052 32.0501L21.5345 34.387V43.3805C21.5345 44.9294 22.7008 46.1852 24.1394 46.1852H28.9516C30.3747 46.1852 31.7394 45.5766 32.7459 44.493L34.3468 42.7692H24.9031V34.3397Z" fill="white"/>
</svg>
