<svg width="36" height="37" viewBox="0 0 36 37" fill="none" xmlns="http://www.w3.org/2000/svg">
<path d="M30.1666 31.968C34.4631 27.958 36.3725 21.2748 35.2269 14.8779H18.1367V21.9431H27.8752C27.4934 24.2345 26.1566 26.1439 24.2472 27.3852L30.1666 31.968Z" fill="#4285F4"/>
<path d="M1.90576 26.3349C2.06221 26.6429 2.22717 26.9463 2.40062 27.245C2.57421 27.5438 2.75603 27.8373 2.94608 28.1258C3.13627 28.4141 3.33429 28.697 3.54042 28.9742C3.74654 29.2515 3.96024 29.5226 4.18177 29.7878C4.40317 30.0529 4.63187 30.3116 4.86801 30.5638C5.10402 30.816 5.34707 31.0613 5.59702 31.2999C5.84697 31.5382 6.10343 31.7695 6.3664 31.9935C6.62937 32.2175 6.89845 32.4338 7.17377 32.6426C7.44896 32.8514 7.72986 33.0522 8.01647 33.245C8.30307 33.4379 8.59486 33.6225 8.89197 33.7989C9.18893 33.9752 9.49068 34.1431 9.79722 34.3025C10.1037 34.4617 10.4145 34.6123 10.7296 34.754C11.0446 34.8957 11.3633 35.0286 11.6859 35.1522C12.0084 35.276 12.3342 35.3905 12.6632 35.4958C12.9922 35.6011 13.3239 35.6971 13.6583 35.7836C13.9928 35.8702 14.3293 35.9472 14.6681 36.0148C15.0069 36.0823 15.3473 36.1402 15.6894 36.1885C16.0314 36.2368 16.3746 36.2754 16.7189 36.3042C17.0631 36.333 17.4079 36.3523 17.7532 36.3616C18.0985 36.371 18.4438 36.3706 18.7892 36.3605C19.1345 36.3504 19.4791 36.3305 19.8234 36.3009C20.1675 36.2713 20.5105 36.232 20.8525 36.183C21.1945 36.134 21.5348 36.0753 21.8735 36.007C22.2121 35.9387 22.5485 35.861 22.8827 35.7738C23.217 35.6865 23.5485 35.5898 23.8773 35.4838C24.206 35.3779 24.5316 35.2626 24.8539 35.1381C25.1761 35.0137 25.4946 34.8803 25.8094 34.7378C26.1241 34.5955 26.4345 34.4443 26.7406 34.2843C27.0469 34.1244 27.3483 33.9558 27.645 33.7788C27.9415 33.6018 28.2329 33.4165 28.5191 33.2231C28.8053 33.0296 29.0858 32.8281 29.3606 32.6188C29.6354 32.4095 29.9041 32.1925 30.1665 31.968L24.2471 27.3852C19.1869 30.7268 10.7851 29.4856 7.92071 21.6566L1.90576 26.3349Z" fill="#34A853"/>
<path d="M7.92071 21.6566C7.1569 19.2697 7.1569 17.0738 7.92071 14.6869L1.90576 10.0085C-0.290159 14.4005 -0.958472 20.6063 1.90576 26.3349L7.92071 21.6566Z" fill="#FBBC02"/>
<path d="M7.92071 14.6869C10.0213 8.09909 18.9959 4.28006 25.0109 9.91304L30.262 4.75739C22.815 -2.40319 8.30268 -2.11685 1.90576 10.0085L7.92071 14.6869Z" fill="#EA4335"/>
</svg>
