<svg width="107" height="165" viewBox="0 0 107 165" fill="none" xmlns="http://www.w3.org/2000/svg">
<path d="M90.91 0H36.572C32.203 0 28.013 1.736 24.924 4.825L15.678 14.071H75.567V28.711L87.674 16.604C89.746 14.532 90.911 11.721 90.911 8.79L90.91 0Z" fill="url(#paint0_linear_1798_7959)"/>
<path d="M24.261 40.573L15.402 49.432H69.466C74.186 49.432 78.713 47.557 82.051 44.219L90.91 35.36H36.846C32.126 35.36 27.599 37.235 24.261 40.573Z" fill="url(#paint1_linear_1798_7959)"/>
<path d="M106.45 116.351H89.472V94.855L79.356 102.419C76.546 105.229 74.967 109.041 74.967 113.016V164.782L84.908 154.842C87.673 152.077 89.247 148.342 89.296 144.432L89.422 134.301C89.454 131.733 90.506 129.283 92.347 127.491L106.45 116.351Z" fill="url(#paint2_linear_1798_7959)"/>
<path d="M30.618 96.149H67.111C73.423 96.149 79.476 93.642 83.94 89.178C88.403 84.715 90.911 78.661 90.911 72.349V56.079H20.364C16.163 56.079 12.135 57.748 9.164 60.718L0 69.883H75.97V82.078H36.505C32.304 82.078 28.275 83.747 25.305 86.717L15.677 96.344V133.393C15.677 139.774 20.85 144.947 27.231 144.947H48.575C54.887 144.947 60.94 142.44 65.404 137.976L72.505 130.875H30.618V96.149Z" fill="url(#paint3_linear_1798_7959)"/>
<defs>
<linearGradient id="paint0_linear_1798_7959" x1="53.225" y1="0" x2="53.225" y2="164.782" gradientUnits="userSpaceOnUse">
<stop stop-color="#22DFE5"/>
<stop offset="1" stop-color="#D9FAFB"/>
</linearGradient>
<linearGradient id="paint1_linear_1798_7959" x1="53.225" y1="0" x2="53.225" y2="164.782" gradientUnits="userSpaceOnUse">
<stop stop-color="#22DFE5"/>
<stop offset="1" stop-color="#D9FAFB"/>
</linearGradient>
<linearGradient id="paint2_linear_1798_7959" x1="53.225" y1="0" x2="53.225" y2="164.782" gradientUnits="userSpaceOnUse">
<stop stop-color="#22DFE5"/>
<stop offset="1" stop-color="#D9FAFB"/>
</linearGradient>
<linearGradient id="paint3_linear_1798_7959" x1="53.225" y1="0" x2="53.225" y2="164.782" gradientUnits="userSpaceOnUse">
<stop stop-color="#22DFE5"/>
<stop offset="1" stop-color="#D9FAFB"/>
</linearGradient>
</defs>
</svg>
