<svg xmlns="http://www.w3.org/2000/svg"><path stroke="currentColor" d="M30.167 31.968c4.296-4.01 6.206-10.693 5.06-17.09h-17.09v7.065h9.738c-.382 2.291-1.718 4.2-3.628 5.442zM1.906 26.335a18.5 18.5 0 0 0 2.276 3.453 18.3 18.3 0 0 0 3.834 3.457 18.3 18.3 0 0 0 5.642 2.539 18.4 18.4 0 0 0 6.165.517 18.33 18.33 0 0 0 10.343-4.333l-5.919-4.583c-5.06 3.342-13.462 2.1-16.326-5.728zm6.014-4.678c-.763-2.387-.763-4.583 0-6.97l-6.014-4.678c-2.196 4.391-2.864 10.597 0 16.326zm0-6.97C10.022 8.099 18.997 4.28 25.01 9.913l5.252-5.156c-7.447-7.16-21.96-6.874-28.356 5.252z"/></svg>