<svg xmlns="http://www.w3.org/2000/svg" fill="none" viewBox="0 0 40 54"><path fill="#faa2b8" d="M28.496 7h-12.25c-.986 0-1.93.421-2.627 1.171l-2.084 2.245h13.502v3.553l2.73-2.938a2.8 2.8 0 0 0 .73-1.897zM13.47 16.849l-1.998 2.15h12.19c1.064 0 2.085-.455 2.837-1.265l1.997-2.15H16.307c-1.064 0-2.085.455-2.837 1.265M32 35.244h-3.828v-5.218l-2.28 1.836a3.78 3.78 0 0 0-.99 2.572V47l2.241-2.413a3.78 3.78 0 0 0 .99-2.527l.028-2.46a2.44 2.44 0 0 1 .66-1.652z"/><path fill="#faa2b8" d="M14.903 30.34h8.228c1.423 0 2.788-.609 3.794-1.692 1.006-1.084 1.572-2.553 1.572-4.086v-3.95H12.59c-.947 0-1.855.406-2.525 1.127L8 23.964h17.128v2.96H16.23c-.947 0-1.855.405-2.525 1.126l-2.17 2.337v8.993c0 1.55 1.166 2.805 2.604 2.805h4.813c1.423 0 2.787-.608 3.794-1.692l1.6-1.724h-9.443z"/></svg>