<svg xmlns="http://www.w3.org/2000/svg" fill="none" viewBox="0 0 107 165"><path fill="url(#a)" d="M90.91 0H36.572a16.47 16.47 0 0 0-11.648 4.825l-9.246 9.246h59.889v14.64l12.107-12.107a11.05 11.05 0 0 0 3.237-7.814z"/><path fill="url(#b)" d="m24.261 40.573-8.859 8.859h54.064c4.72 0 9.247-1.875 12.585-5.213l8.859-8.859H36.846c-4.72 0-9.247 1.875-12.585 5.213"/><path fill="url(#c)" d="M106.45 116.351H89.472V94.855l-10.116 7.564a15 15 0 0 0-4.389 10.597v51.766l9.941-9.94a15 15 0 0 0 4.388-10.41l.126-10.131a9.67 9.67 0 0 1 2.925-6.81z"/><path fill="url(#d)" d="M30.618 96.149h36.493a23.8 23.8 0 0 0 23.8-23.8v-16.27H20.364a15.84 15.84 0 0 0-11.2 4.639L0 69.883h75.97v12.195H36.505a15.84 15.84 0 0 0-11.2 4.639l-9.628 9.627v37.049c0 6.381 5.173 11.554 11.554 11.554h21.344a23.8 23.8 0 0 0 16.829-6.971l7.101-7.101H30.618z"/><defs><linearGradient id="a" x1="53.225" x2="53.225" y1="0" y2="164.782" gradientUnits="userSpaceOnUse"><stop stop-color="#22dfe5"/><stop offset="1" stop-color="#d9fafb"/></linearGradient><linearGradient id="b" x1="53.225" x2="53.225" y1="0" y2="164.782" gradientUnits="userSpaceOnUse"><stop stop-color="#22dfe5"/><stop offset="1" stop-color="#d9fafb"/></linearGradient><linearGradient id="c" x1="53.225" x2="53.225" y1="0" y2="164.782" gradientUnits="userSpaceOnUse"><stop stop-color="#22dfe5"/><stop offset="1" stop-color="#d9fafb"/></linearGradient><linearGradient id="d" x1="53.225" x2="53.225" y1="0" y2="164.782" gradientUnits="userSpaceOnUse"><stop stop-color="#22dfe5"/><stop offset="1" stop-color="#d9fafb"/></linearGradient></defs></svg>