<svg xmlns="http://www.w3.org/2000/svg" fill="none" viewBox="0 0 109 109"><path fill="#ff7b9c" d="M45.758 48.186c-.04.176-.19.636.136.596a15.7 15.7 0 0 0 1.287-4.945c-1.07.271-.623 1.422-.772 2.249-.15.745-.461 1.422-.65 2.1m7.653 52.479c.013-.596-.095-2.14-.989-2.018-.04 0-.61.583-.474.745.312.068.786.136 1.002.366.285.298.109.853.46.921zM42.06 41.995c.082-.366-.122-.352-.325-.502-.555-.392-1.151-.745-1.693-1.15l1.097 2.017.908-.365zm4.66 57.817c.163.095.312.19.474.271.23-.42.38-.731.325-.772-.325-.325-.65.298-.799.501m-2.262-.162c.312.067.623.135.948.19.325-.827.596-1.532.57-1.667-.041-.19-.367-.407-.34-.691-.406-.284-.894 1.192-1.178 2.168m29.056-85.29c-.501-.393-1.463-.055-1.964-.786.081 1.03.447 2.005.542 3.034.04.447-.176 2.845.284 2.831l1.368-1.639c-.92.014-.203-1.476 0-2.126.15-.515.556-.705-.23-1.314m7.992 40.193h2.655v-.881h-2.655zm-22.96-8.887v.528l.799.19c.27-.772.515-.57.786-.759.19-.135.284-.542-.041-.69-.447.42-.867 1.097-1.558.73zM39.12 41.074c.502 1.083.61 2.587 1.83 3.115.121-.758-.61-1.07-.867-1.612-.23-.487-.095-1.503-.962-1.503m2.37 34.923c-.176.257-.555.19-.528.474l1.002.38c.258-.99 1.369-.556 1.72-.773.055-.027.299-.677.57-.989.69-.758 1.598-.853 1.828-1.083.326-.326.637-2.398.637-2.94 0-.853-.42-1.463-.46-2.195-.082-1.53.69-3.644.162-5.107-.447-1.205-2.005-2.994-3.25-3.346-.489-.135-1.857-.176-2.168-.487-.19-.19-.15-.745-.488-1.07-.623-.583-.311.73-.311.84-.028.758-.678.758-1.152 1.178-1.53 1.382-3.617 4.646-3.752 6.706-.054.745.393 1.68.447 2.357.027.325 0 2.75-.122 2.83l-2.357-.162c-.393.285 3.102 4.186 3.576 4.403.095.04.312.04.271-.095-.163-.69-1.937-3.522-.366-3.116.244.637 1.355.867 1.26 1.612-.04.258-.664.813-.068 1.043.352.136.637-.934.637-1.164-.014-.65-1.206-2.764-1.64-3.32-.297-.379-.947-.338-.73-1.192.92-.135 1.26.475 1.72 1.111l1.76 3.834.028-2.086.718-.407c.257-.934-.88-3.007.731-2.736.204.217.312.474.353.759.108.718.284 3.346.203 4.023-.027.257-.055.501-.203.718z"/><path fill="#ff7b9c" d="M33.824 54.024c-.541.434-.975.99-1.476 1.45-.637.582-1.707.84-1.382 1.747.447 1.274 2.005.556 2.94.176 2.126-.853 2.452-1.666 4.958-2.086.176-.027.19-.38.406-.487.366-.19 1.043-.136 1.463-.312.582-.244 1.639-1.585 2.194-1.842.542-.258 1.125-.244 1.694-.23l-.095-.556c-.447-.163-.921-1.53-1.274-1.477-.487.068-1.219 1.531-1.652 2.032-.325.38-1.544 1.64-1.924 1.761-.772.244-1.165-.704-1.977-.812-.65-.082-1.152.311-1.775-.014l-.027-.759 1.558-.812c.04-.38-1.95-1.477-2.37-1.83-.895-.758-2.033-1.963-2.1-3.183-.028-.61.352-1.287 1.016-.853.365.244-.055.867 0 1.273.094.772 3.02 3.306 3.305 3.035-.678-.976-1.64-2.019-2.113-3.116-.258-.583-.298-1.246-.556-1.829-.298-.69-2.37-4.132-.88-4.172.88-.014.812.853 1.165 1.327.447.61 1.368 1.138 1.476 1.924.285.054.203-.257.163-.447-.095-.556-.407-.948-.176-1.572.799-.054 1.043.542 1.449 1.017.122.148.46.203.515.297.108.204 0 .597.122.881.27.65.623 1.084 1.381 1.097.23-.718-.46-1.083-.623-1.476-.406-1.003-.501-2.1-1.219-3.021-.135-.366.908-.46.556-.813-.123-.135-1.626-.244-.285-1.097l1.571.921c.23-.244-.772-1.016-.961-1.151-.353-.23-2.384-1.288-2.696-1.355-.61-.122-3.21.352-3.576.853-.948 1.274-.976 5.189-1.423 6.733-.447.433-6.962.908-8.276 1.341-.298.095-.46.19-.65.447 1.639 1.003.853 2.926 2.98 3.793.962.393 3.874.8 4.985.88 1.083.069 2.384-.352 3.291-.175.163.027 1.423 1.016 1.463 1.097.488.813-.596.921-1.178 1.395z"/><path fill="#ff7b9c" d="M13.573 77.758c.447-.081.989.068 1.463 0 1.436-.203 2.845-.65 4.308-.176-.041-.8-.353-1.612-.136-2.425.068-.257 1.138-2.154 1.341-2.33.556-.447 1.544-.352 2.262-.853.448-.326.624-.88.949-1.07 1.137-.65 3.684-1.721 4.958-1.653 1.219.054 3.345.975 4.646 1.192.433-.068-.068-1.544-.081-1.924-.163-2.831 1.598-5.73 3.291-7.884.488-.623 2.032-1.87 2.29-2.479.135-.325-.177-.732-.095-1.097.447-.434 1.693 1.436 2.194.92.434-.446-.69-.758-.921-1.002-.176-.19-.38-.853-.447-.826-.853.447-1.626 1.355-2.411 1.802-.542.298-3.427 1.666-3.901 1.774-1.856.434-3.604-.284-3.997-2.248-.325-1.653 1.287-2.913 2.344-3.902-1.788.054-3.766-.298-5.54-.785-1.192-.326-1.247-.515-2.1-1.057-.542-.339-.772-.095-1.3-.854-.786-1.097-1.436-3.034-1.328-4.362.054-.582.853-1.34 1.368-1.571 1.842-.826 4.863-.772 6.868-1.11.46-2.277.704-4.661 2.032-6.639 1.883-.636 3.657-1.354 5.662-.731.691.216.908.636 1.368.84.99.433 2.168.094 2.52 1.612.339-.353.88-.353 1.287-.082.216.136.027.502.149.691.095.15.379.176.46.325.542.962.827 2.547 2.032 2.927l-.095-1.464.542.556c.515-2.14 1.395-1.897 3.305-1.463-.054-1.544-.745-3.102-.663-4.647.027-.65 1.07-3.942.853-4.159-1.666.109-.989.027-1.382-.731-.284-.542-1.422-1.477-1.815-2.032-.406-.569-2.248-3.333-2.438-3.793-.298-.8-.298-2.953-.962-3.251-.61-.285-1.774.135-1.395-1.206l.84-.176c.216-.759-1.138-.691-.271-1.463.23 0 .38.135.569.257.23.15 2.086 1.653 2.167 1.761.447.637.217 1.436.366 2.208.325 1.653 2.953 5.677 4.226 6.774.488.42 2.344 1.53 2.29 2.303-.028.298-.678.907-.827 1.544-.46 1.924 0 3.942.312 5.852l1.178.38c.583 1.408-1.11 1.219-1.693 1.706-.759.637-1.409 2.588-1.693 3.536-.109.366-.488.853-.515 1.124-.027.312.244.596.244.895 0 .92-1.328 2.424-1.937 3.115l1.463-.27v1.097l1.842.08c.948 2.222-2.587.583-3.671 1.112 1.802 1.436 3.874.42 5.865.365-.027.678-.528.84-.772 1.423-.243.61-.325 2.113-1.016 2.303-.745.217-.731-.447-1.165-.8-.447-.352-2.086-1.042-2.478-.474-.732 1.03 1.368 1.03 1.408 1.572.082 1.246-2.126 1.856-2.18 2.194.297.542.365 2.073 1.232 1.653.298-.135.366-.623.975-.433.176.054 1.423 1.571 1.585 1.45.42-1.532 1.463-2.737 2.235-4.092.908-1.599 2.317-4.958 3.36-6.164.528-.623 1.923-.663 2.56-1.287.298-.582-.312-.88-.298-1.558 0-.514.393-.934.366-1.449l-1.965-1.341c-.067-.786-.121-1.666.326-2.357.325-.217 2.6.244 3.386.095.122-.028 2.086-.868 2.181-.935.108-.081 1.626-2.06 1.666-2.195.176-.501-.352-1.53.19-1.639.664-.135.948 1.125 1.503 1.422 1.951 1.084 3.996 1.165 5.92 1.775.447.15.69.691 1.03.8.853.257 2.993 0 3.549-.773.135-.19.772-3.901.718-4.226-.055-.366-.895-1.26-1.03-1.937-.149-.813.054-1.938-.312-2.967-.555-1.545-2.655-2.303-4.158-2.344.135.501.325 1.057-.122 1.477-.854.162-.501-.271-.705-.556-.392-.528-2.072-.013-2.655.176l.542 1.003c-.298.42-.84.257-1.286.27.094.692-.136 1.247-.38 1.87-.054.136-.311.136-.338.271-.041.176.284 1.057.176 1.165-1.436.38-1.368-1.95-2.913-1.625-.42 1.896-1.774.176-2.871.149-.678-.014-.447.46-.732.555-.61.19-.704-.61-.853-.69-.366-.204-.962.257-1.3-.448-.57-1.192.73-1.22.243-2.073-.542-.934-1.76-.555-1.842-.636v-.921c.284 0 1.558.08 1.476-.461-.04-.786-1.368-.853-1.571-1.192-.095-.163-.095-1.409-.04-1.544.026-.055.812-.908.866-.935.502-.312 1.382.46 1.748-.623.487-1.436-1.802-2.33-.366-3.32l1.002.38c-.433-1.043-.555-1.856-.176-2.926 1.423-.136.691.65.772 1.328.055.474.407 2.154.542 2.573.082.244.244.366.515.312.04-.474-.095-1.057.04-1.517.15-.515 1.003-.786 1.057-1.003.258-.84.312-3.413.827-4.09.528-.407 1.246-.258 1.192.473-.027.38-.556.624-.678 1.138-.406 1.545-.081 3.414-.406 4.999.27.04.176-.284.38-.447 1.124-.88.92-1.246 1.598-2.425.338-.596 1.612-3.305 2.424-2.736l.19.718c-.271.23-.474.27-.718.61-.528.758-1.693 3.67-1.95 3.914-.177.163-.42.19-.637.176l.311.515h.583l3.928-6.164.407-.162.568.298-.08.894c1.354.623 0 1.097-.461 1.693-.65.827-1.165 2.154-1.653 3.116l-.84.271.366 1.924c.813-.23 1.395-1.03 2.316-1.098.203-.013.921.095.975.19.393.637-1.124.867-1.503 1.26-.203.203-.176.542-.393.758-.447.448-1.07.705-1.382 1.274l2.926-.366-.365 1.097c1.503.163 3.833.407 5.039 1.463.528.461.379 1.138 1.327 1.247.84-.339 1.829-.217 2.615-.42 2.235-.57 4.537-3.279 4.903-5.554.285-1.816-1.87-3.834-3.318-4.66-1.111-.65-1.951-.705-3.17-1.003-.976-.054-5.744.122-6.19.65-.069.082 0 .529-.136.786-.61 1.22-2.046 1.097-1.3.136.216-.285.758-.556.92-1.044.57-1.612.475-3.82.434-5.459 0-.406-1.3-2.696-1.504-2.818-.216-.122-1.639.8-1.801-.677-.068-.61.42-1.409-.38-1.815-.121-.068-1.381-.366-1.544-.38-1.084-.04-1.815.475-2.858.366-.772-.081-.772-.69-.23-.975.203-.109 1.693-.393 1.99-.407.624-.027 1.098.19 1.64.19 1.612 0 3.156-.447 4.416.718.501.46.88 1.504 1.192 1.748.298.216.935.257 1.341.487.542.312 1.084 1.152 1.761 1.355.569.176 2.736-.15 3.55-.434-2.195-1.273-4.336-2.465-6.205-4.226-1.273-1.192-2.953-2.303-4.213-2.67-1.693-.488-3.44.15-5.188-.149-1.747-.298-3.888.813-5.784.718l-.46 1.693 3.738.908c.8.528-1.327 1.72-1.625 2.046-.99 1.097-2.181 4.484-2.466 5.96-.068.393.068.894-.04 1.233-.271.853-2.317-.42-2.859-.569-1.124-.298-2.817-.298-3.982-.23-.501.027-.921.379-1.382.284-1.138-.244-2.993-2.79-4.565-2.682v-1.084c1.856-.298 3.17 2.019 4.823 1.829.433-.054.812-.312 1.3-.352 1.747-.176 3.373.298 5.053.664.23-1.341.989-2.14 1.557-3.211.271-.501.34-1.192.583-1.612.244-.406.718-.447.786-.867v-.271c-.42-.149-1.3-.433-1.558-.745-.203-.244-.176-.569-.298-.772-.122-.19-.366-.176-.46-.488-.204-.704-.055-1.246.148-1.774-.244 0-.487-.014-.731-.014-26.401-.027-47.75 21.322-47.75 47.67 0 4.525 2.06 8.142 3.238 12.288 1.083 3.82 1.205 8.209 3.156 11.582.365-.162.65-.284.677-.298m54.32-45.11c.61-.258 1.49.338 1.097.907-.285.407-1.436-.176-1.097-.907m-6.421 3.562c.636-.447 1.287.352.69.976-.73.758-1.219-.596-.69-.976m-12.11-25.264.027.799-.705-.027c-.487-.704.055-1.572.678-.772m-6.95 4.551c.028-.27-.08-.325.271-.27.624.176 2.723 2.993 2.656 3.562-.014.19-.407.854-.556.921-.935.529-1.788-1.07-2.71-1.219l-.026-.704h.731c.122-.813-.46-1.504-.379-2.29zM16.77 75.184c.176.772.149 1.653-.894 1.45-.271-.84-.15-1.599.894-1.45m-1.463-28.692c.623.515.108 1.45.894 1.22l.027 1.246c-.23.176-2.14-.962-2.194-1.233-.163-.84.325-2.018 1.273-1.246zm-2.669-2.127c.34-.514 2.195.38 1.518 1.057-.068.068-1.545.854-1.599.786zm68.868 8.454h2.655v-.976h-2.655z"/><path fill="#ff7b9c" d="M80.328 14.292c-.298.569-.61 1.124-.975 1.68-.583.88-.448 1.91-.746 2.357-.284.433-.988.555-1.192 1.11 1.192-.19 3.834.217 4.66 1.111.447.474 1.558 1.802 1.897 2.303 2.479 3.671-.082 8.521-3.753 10.133-.772.339-2.776.583-3.061 1.165-.46.962.975 3.17.989 4.443 0 .515-.637 3.943-.854 4.295-.094.162-1.774 1.287-2.059 1.422-.623.298-1.449.46-2.14.583-1.517-.556-3.142-.745-4.7-1.165-.244-.068-.434-.366-.678-.42-.46-.122-.948.04-1.381-.081-.46-.136-.88-1.328-1.22-1.057-.054.758-.948 1.409-1.178 2.018-.298.786-.149 1.49-.826 2.29-1.003 1.178-1.856-.176-2.357 1.314l.339 1.165.907-.19c-.081 1.097.948 1.897 1.3 2.831.407 1.125.122 2.114.529 3.13.664-.027 1.246.406 1.842.541 1.829.42 2.465.42 4.267 1.233 2.316 1.043 3.427 1.666 4.606 4.01.352.705.555 1.395.392 2.195-.311 1.503-2.655 4.592-3.833 5.608-.853.745-2.465.69-2.669 2.005l.447 5.405c.244.393 1.924.69 2.29 1.002.257.217.243.61.42.773.149.162.582.23.88.5.813.773.65 2.615.271 3.59-.23.597-.732.854-1.002 1.234-.176.257-.15.758-.447.988-1.463 1.152-.718-1.68-.488-2.33.162-.447.745-.663.542-1.232-.42-1.396-3.834-2.493-4.28-3.428-.055-.108-.299-1.896-.285-2.113.013-.433.352-.745.338-1.07 0-.122-.623-2.06-.731-2.37-.19-.543-.975-.732-.244-1.626.501-.61 1.64-.583 1.422-1.978.542-.352 1.287-.081 1.802-.312.095-.04 1.517-1.138 1.653-1.287.745-.799 2.221-3.454 1.977-4.538-.203-.908-2.546-2.912-3.44-3.332-2.181-1.044-3.888-1.328-6.313-1.193-.515.028-1.381.515-1.747.095-.637-.745.203-1.097.325-1.517.786-2.492-1.477-3.508-1.246-5.92l-1.341 2.412c.298 2.221-1.477 3.224-2.615 4.89-.325.474-1.747 2.845-1.72 3.224 1.233.406 1.598-1.748 2.994-1.355.474.163.514 1.382.487 1.816.312-.109 2.493-.109 2.56 0 .23.352-.149 1.002-.636 1.097-1.084.203-2.94.04-4.2.203-.42.054-.812.406-1.191.46-.515.068-.949-.284-1.531.068-1.165 2.154-2.601 4.2-3.427 6.503.718.623.596-.15.92-.352.732-.475.908.46 1.03.46.515.04 1.734-.338 2.154-.325.786.027 1.748 1.002 2.384.867.136-.027.108-.325.244-.366.65-.19.555.23.813.434.135.108.42.068.487.149.109.122-.013.487.23.785.597.745 2.127.881 2.195 1.83-.176.609-2.777-.069-3.224-.624-.27-.338-.257-.907-.433-1.03-.19-.135-3.983-.311-4.498-.257-.61.054-2.14.271-2.709.407-.108.027-1.801 1.151-1.87 1.246-.148.203-.202.908-.365 1.273-.393.88-2.587 4.281-.298 3.455-.095-.935.258-.57.664-.88 1.273-.976 1.87-1.613 2.127-3.28l.894-.026c.108.785-.217 1.558-.65 2.194-.515.732-1.802 1.572-2.222 2.276-.298.488-.04 1.368-1.165 1.409 0 .989 1.151-.203 1.395-.339.312-.176.664-.23.975-.392.285 1.246-.92 1.286-1.652 1.923l.731.095c.258 1.097-.46.962-1.097 1.558-.068.745 2.073-.515 2.262-.664.502-.42.908-1.53 1.152-1.599 1.314-.406 0 1.762-.312 2.073-.582.596-1.76 1.03-2.533 1.314l-2.032 1.355c.596.582 3.116.108 3.292.366.46.663-1.26 1.097-1.72 1.083-1.111-.027-2.25-1.043-3.4-.894-.136.61.487.258.907.46.38.177.813.732.664 1.193-.054.19-.827 1.395-.962 1.436-.637.217-.935-.38-1.53-.339.121.84-.326 1.72-1.193 1.843-.704.094.095-1.057.109-1.382.027-.352-.15-.678-.203-1.016-1.111-.19-1.463 1.422-1.951 1.625-1.192.488-.366-1.463-.88-1.436-.068 0-.624.664-.84.813-.664.42-2.655 1.003-3.292.57-1.3-.895 2.208-.814 2.29-1.383l.46-1.273c-.664.109-.908-.786-1.22-.894-.907-.312-3.386.542-4.32.935-.502.216-.895.975-1.613.61l-.27-1.03c.27-.393 2.546-.718 3.088-1.084.257-.176.745-1.057 1.07-1.368.447-.434 1.409-.556 1.26-1.396-1.788-.243-3.509-.866-5.27-1.246-.569-.122-1.49.176-1.788-.406-.338-.637.041-.948.691-.88.61.067 4.294 1.286 4.538 1.056-.068-.583-.758-.759-.542-1.463 1.003-.203 1.125 1.07 2.019 1.368.596.203 1.219.068 1.828.095l-.23-.42c-.772-.569-3.495-1.653-3.982-2.235-.23-.285-.217-.488-.19-.827.989-.122 1.734.732 2.587 1.165.407.217.854.312 1.3.542.34.176.394.772.881.407-.826-1.07-4.876-4.335-4.673-5.622l.46-.528c-1.07-.244-2.302-.84-3.386-.922-.65-.054-2.967.38-3.576.637-1.138.501-1.26 1.788-1.64 2.019-.5.297-1.896-.163-2.478.46l-.285 1.707c1.3.65.948 1.3 1.124 2.398.082.46.597 1.585.177 1.87-.556.379-1.558-.353-2.127-.461-1.72-.312-3.739-.136-5.486-.19-.407-.014-.854-.244-1.274-.176a48.6 48.6 0 0 0 7.126 8.724c.27.04.474.054.514.04 1.084-.297.61-2.37 1.044-2.641.42-.257 1.043.583 1.652.108.217.894-.61 1.545-.718 2.317-.04.284.501 1.138.542 1.76 1.395 1.166 1.45 1.112 2.98 2.114.176.04 2.208.894 2.33.894.772 0 .84.474 1.382.434.122 0 1.869.149 1.964.176.149.04.311.542.582.745.84.637 2.642 1.585 3.685 1.64.704.026 1.639-.583 2.465-.353.203.867-.447.84-.84 1.273-.541.61-.176-.19-.812.312 1.72.677 3.44 1.219 5.255 1.693.515-.907.15-.42.244-1.436-1.016.339-.948.623-2.072.474.122-1.558.027-1.205 1.34-1.395l-.175-2.073c-.867-.094-1.436-1.3-1.843-1.49-.555-.257-3.224-.122-2.912-1.26.19-.298.474-.42.718-.677-.718-.027-1.409.352-1.937-.176-.298-.46.257-1.368.65-1.571.393-.204 1.124.812 1.612.867l.04.582c-.121.122-.243.176-.365.312.948.027 1.87.013 2.804.216.704.854 1.64 2.114 2.831 2.303.556.095 3.671-.067 4.348-.135 1.274-.15 1.992-.745 2.547-1.856.176-.352.19-1.03.38-1.273.31-.38 2.343.108 2.939.19 1.178.148 1.666.216 2.83.473.705.163 2.399-.108 1.667.908-.718.474-3.996-.366-5.012-.257l-.298.433c.203.244.434.447.731.555 1.314.502 2.859.65 4.173.949.623.149 1.151.514 1.788.623.42 0 .975-1.49 1.734-1.11l-.027.704-1.436.853c-.095.38.514.366.555.569.298 1.3-1.896.8-1.95-.136l-3.008-.162c.027.298.447.19.745.447.529.447 1.572 1.477 2.127 2.005 1.043 1.002.813.867 1.057 2.235l-.705-.027c-.339-1.422-.515-1.165-1.652-2.086l-.271.92c-.637.231-1.91-.582-2.113-1.11-.163-.42.487-1.11-.705-1.26-.149.04-.826 1.179-.84 1.355-.027.637.894 1.192.921 1.829.027.352-.19 1.341-.284 1.761-.068.311-.921 1.205-1.016 1.463.122 0 1.68-.379 1.788-.42 2.127-.975 3.942-1.314 6.502-2.533 3.102-1.477 5.757-1.707 8.534-2.71.027-.149.054-.311.04-.474-.108-1.503-2.058-2.52-3.616-2.668-.962-.095-1.856.65-2.804.257-.23-.095-1.368-1.07-1.436-1.314-.217-.732.488-.975.257-1.517-1.828-1.585-5.106-2.601-7.49-2.371-1.247.122-2.317.921-3.59.813-.542-.271-.813-2.344-1.003-2.859-.203-.555-.84-1.11-.934-1.815-.217-1.612 1.625-1.138 2.614-1.436.61-.176 1.07-.718 1.571-.989.786-.42 3.265-1.395 3.428-2.262.08-.447-.082-.935.054-1.422.108-.447.867-1.111 1.124-1.626.42-.84.474-1.87 1.03-2.655.311-.203 2.045.406 1.937 1.03l2.275-.204.177.908c-.664.19-1.233.433-1.938.528-.392.054-1.327-.068-1.503.054-.082.055-.122.502-.312.691-.244.258-.758.434-.907.745-.407.894.406 1.328.284 1.897-.04.216-.65.19-.555.569l.894.663-.19.691-2.614.366c-.136.095-.163 1.125-.854 1.409-.365.15-.61-.108-.961-.054-.922.135-.65 1.206-.908 1.395-.447.339-1.964.176-2.52.04.542 1.085.109 2.819 1.748 2.764.623-.027.772-.582 1.314-.704.813-.19 1.828.095 2.668-.081 1.396-.285 1.91-2.046 2.994-2.154.677-.068 1.626.284 1.544 1.097.596-.582 2.208-.894 2.208.27 0 1.017-.69.502-1.205.489-.244 0-.529.19-.705.162-.19-.027-.162-.474-.379-.515-.433-.08-2.045.325-1.937 1.043.488.109 1.95.637 2.29.922.365.311 1.706 2.343 1.896 2.885.08.23.027.528.04.786.176.176 2.317-.366 2.804-.325.962.081 2.181 1.097 3.251 1.151l1.761 2.195c.136.555.19 1.056.163 1.558 4.592-1.87 9.008-2.886 12.747-6.015-.122.054-.23.108-.353.135-.297.068-.569-.122-.69-.108-.217.04-.203.474-.353.501-.65.136-.948-.772-.61-1.273.394-.082.76-.122.719.325h.257c.298-.84.88-.46 1.3-.61.258-.081.23-.69.813-.474v.556c4.254-3.78 9.28-8.508 11.975-13.574 1.924-3.644 1.95-7.356 2.885-11.474.772-3.414.637-5.189.637-8.846 0-1.41.515-9.645.393-11.027-.583-6.679-1.382-7.126-4.43-12.734-1.138-2.073-2.397-3.184-3.806-5.067-1.883-2.506-6.028-4.93-8.358-7.017-1.761-1.571-2.831-4.552-4.795-5.852zm-9.794 61.827c-.285-.23-.285-.596-.257-.935 1.693-.38 1.178 1.694.257.935m-45.515 8.968-.19-2.019c.163-.149 1.518.23 1.613.393.406.664-.691 1.87-1.436 1.626zm11.542 7.247c.122.678-1.572 1.45-1.83 1.192-.094-.094 0-.636.177-.826.149-.176 1.544-.908 1.653-.366M78.824 45.45c0-.311.15-.46.46-.46h.881c.244 0 .393.108.447.311h3.333v-1.639c0-.312.149-.46.46-.46h.88c.312 0 .461.162.461.46v1.626l4.945.013c.325 0 .46.163.433.488l-.122 1.3c-.027.298-.19.447-.501.42l-.88-.04c-.312-.014-.448-.19-.42-.488l.08-.84H80.6v1.03c0 .311-.15.46-.46.46h-.881c-.312 0-.46-.162-.46-.46v-1.72zm2.493 9.943a.5.5 0 0 1-.285.068h-.88c-.312 0-.46-.149-.46-.46v-3.63c0-.312.148-.475.46-.475h.88c.136 0 .23.027.312.095h8.452c.312 0 .461.149.461.46v3.536c0 .312-.149.46-.46.46h-.881a.6.6 0 0 1-.284-.067h-7.329zm5.12 2.236v8.168c0 .312-.149.46-.46.46h-.881c-.312 0-.46-.162-.46-.46v-8.168c0-.312.148-.46.46-.46h.88c.312 0 .461.148.461.46m-4.484.894c0 1.422 0 2.668-.027 3.712a35 35 0 0 1-.122 2.695 10.4 10.4 0 0 1-.284 1.83c-.136.473-.312.853-.556 1.137a.42.42 0 0 1-.325.163.53.53 0 0 1-.311-.095l-.393-.244a5 5 0 0 1-.325-.257c-.095-.095-.136-.204-.095-.34.203-.663.366-1.787.46-3.4.095-1.598.15-3.779.163-6.515 0-.325.15-.474.46-.474h.881c.312 0 .46.596.46 1.801zm-.474-10.404c.082 0 .163.013.23.04h7.667c.312 0 .461.163.461.461v1.504c0 .311-.149.474-.46.474h-.881a.5.5 0 0 1-.298-.081h-6.461s-.15.054-.258.054h-.88c-.312 0-.46-.15-.46-.46v-1.518c0-.312.148-.46.46-.46h.88zm-.46-.976c0-.284.149-.42.46-.42h7.004c.311 0 .46.15.46.42 0 .271-.149.42-.46.42h-7.004c-.311 0-.46-.149-.46-.42m7.978 9.862c0-.311.15-.474.46-.474h.881c.312 0 .46.163.46.474v11.041c0 .312-.148.46-.46.46h-.88c-.312 0-.46-.162-.46-.46zm1.788 15.213h-5.174v1.897h4.199c.311 0 .46.149.46.46v5.785c0 .339-.162.488-.5.434l-2.398-.312c-.271-.027-.393-.15-.393-.366 0-.054 0-.095.013-.122.082-.298.258-.42.556-.365l.92.121v-4.795h-2.857V81.2c0 .311-.15.46-.46.46h-.881c-.312 0-.46-.149-.46-.46v-6.245h-2.466v5.297c0 .311-.15.46-.46.46h-.881c-.312 0-.46-.149-.46-.46v-6.083c0-.311.148-.46.46-.46h.88c.15 0 .271.04.352.108a.37.37 0 0 1 .122.284h2.466v-1.896h-4.674c-.311 0-.46-.15-.46-.42 0-.271.149-.42.46-.42h4.674v-1.978c0-.311.149-.46.46-.46h.88c.312 0 .461.162.461.46v1.978H90.8c.311 0 .46.135.46.42 0 .284-.149.42-.46.42z"/><path fill="#ff7b9c" d="M85.976 54.553h2.48v-.881h-2.48zm0-1.734h2.48v-.976h-2.48zm2.046-3.821H81.94v.65h6.082z"/><path fill="#ff7b9c" d="M63.165 3.956c1.815 0 3.224.149 4.402.46 2.154.57 4.295 2.168 6.57 3.875 1.504 1.137 3.075 2.303 4.768 3.264 2.222 1.26 4.024 3.292 5.947 5.446 1.002 1.124 2.032 2.29 3.183 3.414 1.612 1.571 3.441 2.763 5.202 3.915 2.127 1.382 4.132 2.696 5.093 4.308 2.046 3.454 3.766 7.626 4.985 12.07.827 3.007.772 6.475.718 10.16 0 .907-.027 1.829-.027 2.736 0 1.545.081 3.075.176 4.552.176 3.116.352 6.055-.311 8.48-1.423 5.216-3.007 9.253-4.823 12.328-1.666 2.817-4.443 5.459-7.111 8.006q-.955.894-1.87 1.788c-2.384 2.33-5.567 4.091-8.926 5.947-.705.393-1.396.772-2.087 1.165-2.465 1.395-5.472 2.073-8.642 2.79-1.206.272-2.452.556-3.725.881-2.208.583-4.226 1.599-6.163 2.588-2.33 1.178-4.525 2.289-6.421 2.289-2.181 0-4.592-1.03-7.153-2.127-1.801-.772-3.657-1.558-5.621-2.073-4.078-1.07-7.965-2.655-11.867-4.863-1.137-.65-2.302-1.246-3.427-1.829-2.925-1.517-5.703-2.953-7.72-4.93-2.412-2.358-4.214-5.46-6.11-8.752l-1.138-1.95c-1.422-2.412-2.113-5.324-2.831-8.4a119 119 0 0 0-.894-3.63c-.406-1.477-.894-2.899-1.382-4.267-.962-2.764-1.883-5.378-1.883-7.993 0-2.953.908-5.879 1.87-8.968.338-1.097.69-2.235 1.016-3.386 1.219-4.47 2.736-8.142 4.768-11.57 2.384-4.023 4.822-7.206 7.694-10.01 3.02-2.953 6.15-6.015 9.875-8.128 3.657-2.073 7.626-4.145 11.866-5.243 3.55-.921 8.223-1.991 12.964-1.991 1.598 0 3.197-.095 4.74-.176 1.518-.082 2.94-.163 4.322-.163M63.165 0c-2.994 0-6.11.352-9.076.352-4.836 0-9.55.962-14.006 2.127-4.606 1.206-8.805 3.36-12.842 5.649-4.09 2.316-7.383 5.5-10.715 8.751-3.319 3.251-5.96 6.814-8.33 10.824-2.33 3.942-3.943 8.02-5.175 12.53C1.829 44.597 0 48.89 0 53.619s2.208 8.927 3.4 13.276c1.233 4.51 1.815 9.049 4.145 12.99 2.37 4.01 4.565 8.264 7.897 11.516 3.32 3.25 7.884 5.066 11.975 7.382 4.037 2.29 8.236 4.065 12.855 5.27 4.457 1.165 8.995 4.335 13.817 4.335s9.184-3.847 13.641-5.012c4.606-1.206 9.306-1.788 13.343-4.064 4.09-2.317 8.52-4.484 11.853-7.735 3.332-3.252 7.247-6.611 9.617-10.621 2.33-3.942 3.996-8.778 5.229-13.29 1.192-4.361.284-9.333.284-14.06s.366-9.565-.826-13.927c-1.233-4.51-3.048-9.09-5.391-13.032-2.37-4.01-7.613-5.784-10.932-9.035s-5.865-7.167-9.956-9.483c-4.037-2.29-7.708-6.326-12.327-7.532-1.72-.447-3.563-.582-5.459-.582z"/></svg>