<svg xmlns="http://www.w3.org/2000/svg" fill="currentColor" viewBox="0 0 160 161"><g clip-path="url(#a)"><g filter="url(#b)"><path d="M71.565 74.492c-.04.176-.19.637.135.596a15.7 15.7 0 0 0 1.287-4.944c-1.07.27-.623 1.422-.772 2.248-.149.745-.46 1.423-.65 2.1m7.653 52.48c.014-.596-.095-2.14-.989-2.019-.04 0-.61.583-.474.746.312.067.786.135 1.003.365.284.298.108.854.46.921zM67.867 68.301c.081-.366-.122-.352-.325-.501-.556-.393-1.152-.745-1.694-1.151l1.098 2.018.907-.366zm4.66 57.818c.162.094.311.189.474.27.23-.42.379-.731.325-.772-.325-.325-.65.298-.8.502m-2.262-.163c.312.068.624.135.949.19.325-.827.596-1.531.569-1.667-.041-.189-.366-.406-.34-.691-.405-.284-.893 1.193-1.178 2.168m29.056-85.29c-.5-.393-1.462-.054-1.964-.786.082 1.03.447 2.005.542 3.035.04.447-.176 2.845.285 2.831l1.368-1.64c-.921.014-.203-1.476 0-2.126.149-.515.555-.704-.23-1.314m7.992 40.193h2.655v-.88h-2.655zm-22.961-8.887v.529l.8.19c.27-.773.514-.57.785-.76.19-.135.285-.541-.04-.69-.448.42-.868 1.097-1.558.731zM64.927 67.38c.501 1.084.61 2.587 1.829 3.116.122-.759-.61-1.07-.867-1.612-.23-.488-.095-1.504-.962-1.504m2.371 34.923c-.176.258-.556.19-.529.475l1.003.379c.257-.989 1.368-.556 1.72-.772.054-.027.298-.678.57-.989.69-.759 1.598-.854 1.828-1.084.325-.325.636-2.398.636-2.94 0-.853-.42-1.463-.46-2.194-.081-1.53.69-3.644.162-5.107-.447-1.206-2.004-2.994-3.25-3.346-.488-.136-1.856-.176-2.168-.488-.19-.19-.149-.745-.487-1.07-.624-.583-.312.731-.312.84-.027.758-.677.758-1.151 1.178-1.531 1.382-3.617 4.647-3.753 6.706-.054.745.393 1.68.447 2.357.027.325 0 2.75-.122 2.831l-2.357-.162c-.393.284 3.102 4.186 3.576 4.402.095.041.312.041.271-.094-.162-.691-1.937-3.523-.365-3.116.243.637 1.354.867 1.26 1.612-.041.257-.664.813-.068 1.043.352.135.636-.935.636-1.165-.013-.65-1.205-2.764-1.639-3.319-.298-.38-.948-.339-.731-1.192.921-.135 1.26.474 1.72 1.11l1.761 3.834.027-2.086.718-.406c.258-.935-.88-3.008.732-2.737.203.217.311.475.352.76.108.717.284 3.345.203 4.022-.027.258-.054.502-.203.718z"/><path d="M59.63 80.33c-.541.434-.975.99-1.476 1.45-.636.583-1.707.84-1.382 1.748.448 1.273 2.005.555 2.94.176 2.127-.854 2.452-1.666 4.958-2.086.176-.027.19-.38.406-.488.366-.19 1.043-.135 1.463-.312.583-.243 1.64-1.585 2.195-1.842.541-.257 1.124-.244 1.693-.23l-.095-.556c-.447-.162-.921-1.53-1.273-1.476-.488.067-1.22 1.53-1.653 2.032-.325.379-1.544 1.639-1.923 1.76-.773.245-1.165-.704-1.978-.812-.65-.081-1.152.312-1.775-.014l-.027-.758 1.558-.813c.04-.38-1.95-1.477-2.37-1.829-.895-.758-2.032-1.964-2.1-3.183-.027-.61.352-1.287 1.016-.854.366.244-.054.867 0 1.274.095.772 3.02 3.305 3.305 3.034-.677-.975-1.639-2.018-2.113-3.116-.258-.582-.298-1.246-.556-1.828-.297-.691-2.37-4.132-.88-4.173.88-.013.813.854 1.165 1.328.447.61 1.368 1.138 1.477 1.923.284.055.203-.257.162-.447-.095-.555-.406-.948-.176-1.571.8-.054 1.043.542 1.45 1.016.121.149.46.203.514.298.108.203 0 .596.122.88.27.65.623 1.084 1.382 1.098.23-.718-.46-1.084-.623-1.477-.407-1.002-.502-2.1-1.22-3.02-.135-.366.908-.461.556-.814-.122-.135-1.626-.243-.285-1.097l1.572.921c.23-.243-.772-1.016-.962-1.151-.352-.23-2.384-1.287-2.696-1.355-.61-.122-3.21.352-3.576.854-.948 1.273-.975 5.188-1.422 6.732-.447.434-6.963.908-8.277 1.341-.298.095-.46.19-.65.448 1.64 1.002.853 2.926 2.98 3.793.962.392 3.874.799 4.985.88 1.084.068 2.384-.352 3.292-.176.162.027 1.422 1.016 1.463 1.097.487.813-.596.921-1.179 1.396z"/><path d="M39.38 104.064c.447-.081.988.068 1.462 0 1.436-.203 2.845-.65 4.308-.176-.04-.799-.352-1.612-.135-2.424.067-.258 1.138-2.154 1.34-2.33.556-.448 1.545-.353 2.263-.854.447-.325.623-.88.948-1.07 1.138-.65 3.685-1.72 4.958-1.653 1.22.054 3.346.975 4.646 1.192.434-.067-.068-1.544-.081-1.923-.163-2.832 1.598-5.73 3.292-7.884.487-.624 2.031-1.87 2.289-2.48.135-.325-.176-.731-.095-1.097.447-.433 1.693 1.436 2.194.921.434-.447-.69-.758-.92-1.002-.177-.19-.38-.854-.448-.827-.853.448-1.625 1.355-2.41 1.802-.543.298-3.428 1.666-3.902 1.775-1.856.433-3.603-.285-3.996-2.249-.325-1.653 1.287-2.912 2.343-3.901-1.788.054-3.766-.298-5.54-.786-1.192-.325-1.246-.515-2.1-1.057-.541-.338-.772-.094-1.3-.853-.786-1.097-1.436-3.035-1.328-4.362.055-.583.854-1.341 1.369-1.572 1.842-.826 4.863-.772 6.867-1.11.461-2.276.705-4.66 2.032-6.638 1.883-.637 3.658-1.355 5.663-.732.69.217.907.637 1.368.84.989.434 2.167.095 2.52 1.612.338-.352.88-.352 1.286-.081.217.135.027.501.15.69.094.15.378.177.46.326.541.962.826 2.547 2.032 2.926l-.095-1.463.542.555c.514-2.14 1.395-1.896 3.305-1.463-.054-1.544-.745-3.102-.664-4.646.027-.65 1.07-3.942.853-4.16-1.666.11-.988.028-1.381-.73-.285-.542-1.423-1.477-1.815-2.033-.407-.569-2.249-3.332-2.439-3.793-.298-.799-.298-2.953-.961-3.25-.61-.285-1.775.135-1.396-1.207l.84-.176c.217-.758-1.138-.69-.27-1.463.23 0 .379.136.568.258.23.149 2.086 1.652 2.168 1.76.447.637.216 1.437.365 2.209.325 1.653 2.953 5.676 4.227 6.773.487.42 2.343 1.531 2.289 2.303-.027.298-.677.908-.826 1.544-.461 1.924 0 3.943.311 5.853l1.179.379c.582 1.409-1.111 1.22-1.694 1.707-.758.636-1.408 2.587-1.693 3.535-.108.366-.487.854-.515 1.125-.027.312.244.596.244.894 0 .921-1.327 2.425-1.937 3.116l1.463-.271v1.097l1.842.081c.949 2.222-2.587.583-3.67 1.111 1.801 1.436 3.874.42 5.865.366-.027.677-.529.84-.772 1.422-.244.61-.325 2.114-1.016 2.303-.745.217-.732-.447-1.165-.799-.447-.352-2.086-1.043-2.48-.474-.73 1.03 1.369 1.03 1.41 1.571.08 1.247-2.127 1.856-2.181 2.195.298.542.365 2.072 1.233 1.653.297-.136.365-.624.975-.434.176.054 1.422 1.572 1.585 1.45.42-1.531 1.463-2.737 2.235-4.092.907-1.598 2.316-4.958 3.36-6.163.527-.623 1.923-.664 2.56-1.287.297-.583-.312-.88-.299-1.558 0-.515.393-.935.366-1.45l-1.964-1.34c-.068-.786-.122-1.667.325-2.358.325-.217 2.6.244 3.386.095.122-.027 2.087-.867 2.181-.935.109-.081 1.626-2.059 1.667-2.194.176-.502-.353-1.531.19-1.64.663-.135.947 1.125 1.503 1.423 1.95 1.084 3.996 1.165 5.92 1.775.446.149.69.69 1.029.799.853.257 2.994 0 3.549-.772.135-.19.772-3.902.718-4.227-.054-.366-.894-1.26-1.03-1.937-.149-.813.055-1.937-.311-2.967-.556-1.544-2.655-2.303-4.159-2.343.136.5.325 1.056-.122 1.476-.853.163-.5-.27-.704-.555-.393-.529-2.073-.014-2.655.176l.542 1.002c-.298.42-.84.258-1.287.271.095.691-.136 1.247-.38 1.87-.054.135-.311.135-.338.27-.04.177.284 1.057.176 1.166-1.436.379-1.368-1.951-2.912-1.626-.42 1.897-1.775.176-2.872.15-.677-.015-.447.46-.732.554-.61.19-.704-.61-.853-.69-.366-.204-.962.257-1.3-.447-.57-1.192.731-1.22.243-2.073-.541-.935-1.76-.555-1.842-.637v-.92c.285 0 1.558.08 1.477-.462-.041-.785-1.369-.853-1.572-1.192-.094-.162-.094-1.408-.04-1.544.027-.054.813-.908.867-.935.5-.311 1.381.46 1.747-.623.488-1.436-1.802-2.33-.366-3.319l1.003.38c-.434-1.044-.556-1.856-.176-2.927 1.422-.135.69.65.772 1.328.054.474.406 2.154.542 2.574.08.244.243.366.514.311.041-.474-.094-1.056.041-1.517.149-.514 1.002-.785 1.057-1.002.257-.84.311-3.414.826-4.091.528-.407 1.246-.258 1.192.474-.027.38-.555.623-.677 1.138-.407 1.544-.082 3.413-.407 4.999.271.04.176-.285.38-.448 1.124-.88.92-1.246 1.598-2.424.339-.596 1.612-3.306 2.425-2.737l.19.718c-.272.23-.475.271-.719.61-.528.758-1.693 3.67-1.95 3.915-.176.162-.42.19-.637.176l.312.515h.582l3.928-6.164.407-.163.569.298-.082.894c1.355.624 0 1.098-.46 1.694-.65.826-1.165 2.154-1.653 3.115l-.84.271.366 1.924c.813-.23 1.395-1.03 2.317-1.097.203-.014.92.095.975.19.393.636-1.124.866-1.504 1.26-.203.203-.176.541-.393.758-.447.447-1.07.704-1.381 1.273l2.926-.365-.366 1.097c1.504.162 3.834.406 5.039 1.463.528.46.379 1.138 1.328 1.246.839-.338 1.828-.217 2.614-.42 2.235-.569 4.538-3.278 4.904-5.554.284-1.815-1.87-3.834-3.319-4.66-1.111-.65-1.951-.704-3.17-1.002-.975-.055-5.743.121-6.19.65-.068.081 0 .528-.136.785-.61 1.22-2.045 1.098-1.3.136.216-.285.758-.556.92-1.043.57-1.612.475-3.82.434-5.46 0-.406-1.3-2.695-1.503-2.817-.217-.122-1.64.8-1.802-.678-.068-.61.42-1.408-.38-1.815-.121-.067-1.38-.365-1.543-.38-1.084-.04-1.816.475-2.859.367-.772-.082-.772-.691-.23-.976.203-.108 1.693-.393 1.991-.406.623-.027 1.098.19 1.64.19 1.611 0 3.156-.447 4.415.718.502.46.88 1.503 1.192 1.747.298.217.935.257 1.342.488.541.311 1.083 1.151 1.76 1.354.569.176 2.737-.149 3.55-.433-2.195-1.274-4.335-2.466-6.204-4.227-1.274-1.192-2.954-2.303-4.213-2.668-1.694-.488-3.441.149-5.188-.15-1.748-.297-3.888.813-5.785.719l-.46 1.693 3.739.908c.799.528-1.328 1.72-1.626 2.045-.989 1.097-2.18 4.484-2.465 5.96-.068.394.067.895-.041 1.233-.27.854-2.316-.42-2.858-.569-1.124-.298-2.818-.298-3.983-.23-.5.027-.92.38-1.381.285-1.138-.244-2.994-2.791-4.565-2.683v-1.083c1.855-.298 3.17 2.018 4.822 1.828.433-.054.813-.311 1.3-.352 1.748-.176 3.373.298 5.053.664.23-1.341.989-2.14 1.558-3.21.27-.502.338-1.193.582-1.613.244-.406.718-.447.786-.867v-.27c-.42-.15-1.3-.434-1.558-.746-.203-.243-.176-.569-.298-.772-.122-.19-.366-.176-.46-.487-.204-.705-.055-1.247.149-1.775-.244 0-.488-.014-.732-.014-26.401-.027-47.75 21.323-47.75 47.671 0 4.525 2.06 8.142 3.238 12.287 1.084 3.82 1.206 8.209 3.156 11.583.366-.163.65-.285.678-.299m54.319-45.11c.61-.257 1.49.339 1.097.908-.284.406-1.436-.177-1.097-.908m-6.42 3.563c.636-.447 1.286.352.69.975-.731.759-1.22-.596-.69-.975M75.167 37.252l.027.8-.704-.028c-.488-.704.054-1.571.677-.772m-6.95 4.552c.028-.271-.08-.325.272-.271.623.176 2.723 2.994 2.655 3.563-.014.19-.406.853-.555.92-.935.53-1.789-1.07-2.71-1.218l-.027-.705h.732c.122-.812-.46-1.503-.38-2.29zm-25.64 59.686c.176.772.15 1.652-.894 1.449-.27-.84-.149-1.598.894-1.449m-1.463-28.692c.624.514.109 1.45.894 1.219l.028 1.246c-.23.176-2.14-.962-2.195-1.233-.163-.84.325-2.018 1.273-1.246zm-2.668-2.127c.338-.515 2.194.38 1.517 1.056-.068.068-1.544.854-1.599.786zm68.867 8.454h2.655v-.975h-2.655z"/><path d="M106.134 40.598a19 19 0 0 1-.975 1.68c-.583.88-.447 1.91-.745 2.357-.285.434-.989.556-1.192 1.111 1.192-.19 3.833.217 4.66 1.11.447.475 1.557 1.802 1.896 2.304 2.479 3.67-.081 8.52-3.752 10.133-.772.338-2.777.582-3.062 1.165-.46.962.976 3.17.989 4.443 0 .515-.636 3.942-.853 4.294-.095.163-1.775 1.287-2.059 1.423-.623.298-1.45.46-2.14.582-1.518-.555-3.143-.745-4.7-1.165-.245-.068-.434-.366-.678-.42-.46-.122-.948.04-1.382-.081-.46-.136-.88-1.328-1.219-1.057-.054.759-.948 1.41-1.178 2.019-.299.785-.15 1.49-.827 2.29-1.002 1.178-1.856-.177-2.357 1.313l.339 1.165.907-.19c-.08 1.098.949 1.897 1.3 2.832.407 1.124.123 2.113.53 3.13.663-.028 1.245.406 1.841.541 1.83.42 2.466.42 4.267 1.233 2.317 1.043 3.427 1.666 4.606 4.01.352.704.555 1.395.393 2.194-.312 1.504-2.655 4.592-3.834 5.608-.853.746-2.465.691-2.668 2.005l.447 5.405c.244.393 1.923.691 2.29 1.003.256.217.243.61.419.772.149.163.582.23.88.501.813.772.65 2.615.271 3.59-.23.596-.731.854-1.002 1.233-.176.257-.149.759-.447.989-1.463 1.151-.718-1.68-.488-2.33.163-.447.745-.664.542-1.233-.42-1.395-3.833-2.493-4.28-3.427-.055-.109-.298-1.897-.285-2.114.014-.433.352-.745.339-1.07 0-.122-.623-2.059-.732-2.37-.19-.542-.975-.732-.243-1.626.5-.61 1.639-.582 1.422-1.978.542-.352 1.287-.081 1.801-.311.095-.041 1.518-1.138 1.653-1.287.745-.8 2.222-3.455 1.978-4.538-.203-.908-2.547-2.913-3.44-3.333-2.182-1.043-3.889-1.328-6.313-1.192-.515.027-1.382.515-1.748.095-.636-.745.203-1.098.325-1.518.786-2.492-1.476-3.508-1.246-5.92l-1.341 2.412c.298 2.222-1.477 3.224-2.614 4.89-.325.474-1.748 2.845-1.72 3.224 1.232.407 1.598-1.747 2.993-1.354.474.162.515 1.382.488 1.815.311-.108 2.492-.108 2.56 0 .23.352-.15 1.002-.637 1.097-1.084.203-2.94.04-4.2.203-.419.055-.812.407-1.191.461-.515.068-.948-.284-1.53.068-1.166 2.154-2.602 4.2-3.428 6.502.718.623.596-.149.921-.352.732-.474.908.46 1.03.46.514.041 1.733-.338 2.153-.325.786.028 1.748 1.003 2.385.867.135-.027.108-.325.243-.365.65-.19.556.23.813.433.136.109.42.068.488.15.108.121-.014.487.23.785.596.745 2.127.88 2.195 1.829-.177.61-2.777-.068-3.224-.623-.271-.34-.258-.908-.434-1.03-.19-.135-3.982-.311-4.497-.257-.61.054-2.14.27-2.71.406-.108.027-1.801 1.151-1.869 1.246-.149.203-.203.908-.365 1.274-.393.88-2.588 4.28-.298 3.454-.095-.935.257-.569.663-.88 1.274-.976 1.87-1.612 2.127-3.279l.894-.027c.108.786-.217 1.558-.65 2.195-.515.731-1.802 1.571-2.222 2.276-.298.487-.04 1.368-1.165 1.408 0 .989 1.152-.203 1.396-.338.311-.176.663-.23.975-.393.284 1.246-.921 1.287-1.653 1.924l.732.094c.257 1.098-.46.962-1.097 1.558-.068.745 2.072-.515 2.262-.664.5-.419.907-1.53 1.151-1.598 1.314-.406 0 1.761-.311 2.073-.583.596-1.761 1.029-2.534 1.314l-2.031 1.354c.596.583 3.115.109 3.291.366.46.664-1.26 1.097-1.72 1.084-1.11-.027-2.249-1.043-3.4-.894-.136.609.487.257.907.46.38.176.813.732.664 1.192-.054.19-.826 1.396-.962 1.436-.636.217-.934-.379-1.53-.338.122.84-.325 1.72-1.192 1.842-.705.095.094-1.057.108-1.382.027-.352-.149-.677-.203-1.016-1.11-.189-1.463 1.423-1.95 1.626-1.193.488-.367-1.463-.881-1.436-.068 0-.623.664-.84.813-.664.42-2.655 1.002-3.292.569-1.3-.894 2.208-.813 2.29-1.382l.46-1.273c-.664.108-.907-.786-1.22-.895-.907-.311-3.386.542-4.32.935-.501.217-.894.976-1.612.61l-.271-1.03c.27-.393 2.547-.718 3.088-1.083.258-.177.745-1.057 1.07-1.369.447-.433 1.41-.555 1.26-1.395-1.788-.244-3.508-.867-5.27-1.246-.568-.122-1.49.176-1.787-.407-.339-.636.04-.948.69-.88.61.067 4.295 1.287 4.539 1.056-.068-.582-.759-.758-.542-1.463 1.002-.203 1.124 1.071 2.018 1.369.596.203 1.22.067 1.829.094l-.23-.42c-.773-.569-3.495-1.652-3.983-2.235-.23-.284-.217-.487-.19-.826.99-.122 1.734.731 2.588 1.165.406.217.853.311 1.3.542.339.176.393.772.88.406-.826-1.07-4.876-4.335-4.673-5.622l.46-.528c-1.07-.244-2.302-.84-3.386-.921-.65-.054-2.966.38-3.576.636-1.138.502-1.26 1.789-1.639 2.019-.501.298-1.896-.163-2.479.461l-.284 1.706c1.3.651.948 1.301 1.124 2.398.081.461.596 1.585.176 1.87-.555.379-1.558-.353-2.127-.461-1.72-.312-3.738-.135-5.486-.19-.406-.013-.853-.243-1.273-.176a48.5 48.5 0 0 0 7.125 8.724c.271.041.474.055.515.041 1.084-.298.61-2.371 1.043-2.642.42-.257 1.043.583 1.652.109.217.894-.61 1.544-.718 2.316-.04.285.502 1.138.542 1.761 1.396 1.165 1.45 1.111 2.98 2.114.177.04 2.209.894 2.33.894.773 0 .84.474 1.382.433.122 0 1.87.149 1.964.176.15.041.312.542.583.745.84.637 2.641 1.585 3.684 1.64.705.027 1.64-.583 2.466-.353.203.867-.447.84-.84 1.274-.542.609-.176-.19-.813.311 1.72.678 3.44 1.219 5.256 1.694.515-.908.149-.42.244-1.436-1.016.338-.948.623-2.073.474.122-1.558.027-1.206 1.341-1.396l-.176-2.072c-.867-.095-1.436-1.301-1.842-1.49-.555-.258-3.224-.122-2.912-1.26.19-.298.474-.42.717-.677-.718-.028-1.408.352-1.937-.177-.298-.46.258-1.368.65-1.571.393-.203 1.125.813 1.612.867l.041.582c-.122.122-.244.177-.366.312.949.027 1.87.014 2.804.217.705.853 1.64 2.113 2.831 2.303.556.095 3.672-.068 4.349-.136 1.273-.149 1.991-.745 2.546-1.856.176-.352.19-1.029.38-1.273.311-.379 2.343.108 2.94.19 1.178.149 1.665.216 2.83.474.705.162 2.398-.109 1.666.907-.717.475-3.996-.365-5.011-.257l-.299.434c.204.243.434.447.732.555 1.314.501 2.858.65 4.172.948.623.149 1.151.515 1.788.623.42 0 .975-1.49 1.734-1.11l-.027.704-1.436.853c-.095.38.515.366.555.569.298 1.301-1.896.8-1.95-.135l-3.007-.163c.027.298.447.19.745.447.528.447 1.571 1.477 2.126 2.005 1.043 1.003.813.867 1.057 2.235l-.704-.027c-.34-1.422-.515-1.165-1.653-2.086l-.27.921c-.638.231-1.91-.582-2.114-1.11-.163-.42.487-1.111-.704-1.26-.15.04-.827 1.178-.84 1.354-.028.637.894 1.192.92 1.829.028.352-.189 1.341-.284 1.761-.067.312-.92 1.206-1.016 1.463.122 0 1.68-.379 1.788-.42 2.127-.975 3.942-1.314 6.502-2.533 3.103-1.476 5.758-1.707 8.535-2.709.027-.149.054-.312.04-.474-.108-1.504-2.059-2.52-3.617-2.669-.961-.095-1.855.65-2.804.257-.23-.095-1.368-1.07-1.436-1.314-.216-.731.488-.975.258-1.517-1.829-1.585-5.107-2.601-7.491-2.371-1.246.122-2.316.922-3.59.813-.542-.271-.813-2.343-1.002-2.858-.203-.556-.84-1.111-.935-1.815-.217-1.612 1.626-1.138 2.615-1.436.61-.176 1.07-.718 1.57-.989.787-.42 3.265-1.396 3.428-2.263.081-.447-.081-.934.054-1.422.109-.447.867-1.111 1.124-1.626.42-.839.475-1.869 1.03-2.655.311-.203 2.045.407 1.937 1.03l2.276-.203.176.907c-.664.19-1.233.434-1.937.529-.393.054-1.328-.068-1.504.054-.081.054-.122.501-.311.691-.244.257-.759.433-.908.745-.406.894.406 1.327.284 1.896-.04.217-.65.19-.555.569l.894.664-.19.691-2.614.366c-.135.094-.162 1.124-.853 1.408-.366.15-.61-.108-.962-.054-.921.136-.65 1.206-.908 1.396-.447.338-1.964.176-2.52.04.543 1.084.11 2.818 1.748 2.764.623-.027.772-.583 1.314-.705.813-.189 1.829.095 2.669-.081 1.395-.284 1.91-2.045 2.994-2.154.677-.068 1.625.285 1.544 1.097.596-.582 2.208-.894 2.208.271 0 1.016-.691.502-1.206.488-.244 0-.528.19-.704.163-.19-.027-.163-.475-.38-.515-.433-.081-2.045.325-1.937 1.043.488.108 1.951.637 2.29.921.365.312 1.706 2.344 1.896 2.886.081.23.027.528.04.785.177.176 2.317-.366 2.805-.325.962.081 2.18 1.097 3.25 1.152l1.762 2.194c.135.556.19 1.057.162 1.558 4.592-1.869 9.008-2.885 12.747-6.015-.122.054-.23.109-.352.136-.298.067-.569-.122-.691-.109-.217.041-.203.475-.352.502-.65.135-.948-.773-.61-1.274.393-.081.759-.122.718.325h.258c.298-.84.88-.46 1.3-.609.257-.082.23-.691.813-.474v.555c4.253-3.779 9.279-8.507 11.974-13.574 1.924-3.644 1.951-7.356 2.886-11.474.772-3.414.636-5.188.636-8.846 0-1.409.515-9.645.393-11.027-.582-6.678-1.381-7.125-4.429-12.734-1.138-2.072-2.398-3.183-3.807-5.066-1.883-2.506-6.028-4.931-8.358-7.017-1.761-1.572-2.831-4.552-4.795-5.852zm-9.794 61.827c-.284-.23-.284-.596-.257-.934 1.693-.38 1.178 1.693.257.934m-45.514 8.968-.19-2.018c.163-.149 1.517.23 1.612.393.407.663-.69 1.869-1.436 1.625zm11.541 7.248c.122.677-1.571 1.449-1.829 1.192-.094-.095 0-.637.176-.827.15-.176 1.545-.907 1.653-.365m42.264-46.885c0-.312.149-.461.46-.461h.881c.243 0 .392.108.447.312h3.332v-1.64c0-.311.149-.46.461-.46h.88c.312 0 .461.162.461.46v1.626l4.944.014c.325 0 .46.162.433.487l-.122 1.3c-.027.299-.189.448-.501.42l-.88-.04c-.312-.014-.447-.19-.42-.488l.081-.84h-8.683v1.03c0 .312-.149.46-.46.46h-.881c-.312 0-.461-.162-.461-.46v-1.72zm2.492 9.943a.5.5 0 0 1-.284.068h-.881c-.312 0-.461-.15-.461-.461v-3.63c0-.312.149-.475.461-.475h.881c.135 0 .23.028.311.095h8.453c.311 0 .46.15.46.46v3.537c0 .311-.149.46-.46.46h-.881a.6.6 0 0 1-.284-.068h-7.329zm5.12 2.235v8.169c0 .311-.149.46-.46.46h-.881c-.311 0-.46-.162-.46-.46v-8.169c0-.311.149-.46.46-.46h.881c.311 0 .46.148.46.46m-4.483.894c0 1.423 0 2.669-.027 3.712a36 36 0 0 1-.122 2.696 10.5 10.5 0 0 1-.285 1.829c-.135.474-.311.853-.555 1.138a.42.42 0 0 1-.325.162.53.53 0 0 1-.312-.095l-.393-.244a6 6 0 0 1-.325-.257c-.095-.095-.135-.203-.095-.339.204-.664.366-1.788.461-3.4.095-1.598.149-3.78.163-6.516 0-.325.149-.474.46-.474h.881c.311 0 .46.596.46 1.802zm-.474-10.404c.081 0 .162.014.23.041h7.667c.311 0 .46.162.46.46v1.504c0 .312-.149.474-.46.474h-.881a.5.5 0 0 1-.298-.08h-6.461s-.149.053-.257.053h-.881c-.311 0-.46-.149-.46-.46v-1.518c0-.311.149-.46.46-.46h.881zm-.461-.975c0-.284.149-.42.461-.42h7.003c.311 0 .46.149.46.42 0 .27-.149.42-.46.42h-7.003c-.312 0-.461-.15-.461-.42m7.979 9.862c0-.312.149-.474.46-.474h.881c.311 0 .46.162.46.474v11.04c0 .312-.149.461-.46.461h-.881c-.311 0-.46-.162-.46-.46zm1.788 15.213h-5.175v1.896h4.199c.312 0 .461.149.461.461v5.784c0 .339-.163.488-.501.434l-2.398-.312c-.271-.027-.393-.149-.393-.365 0-.055 0-.095.014-.122.081-.298.257-.42.555-.366l.921.122v-4.796h-2.858v6.245c0 .312-.149.461-.46.461h-.881c-.312 0-.461-.149-.461-.461v-6.245h-2.465v5.297c0 .312-.149.461-.46.461h-.881c-.312 0-.461-.149-.461-.461v-6.082c0-.312.149-.461.461-.461h.881c.149 0 .27.041.352.108a.37.37 0 0 1 .122.285h2.465V98.51h-4.673c-.312 0-.461-.149-.461-.42 0-.27.149-.42.461-.42h4.673v-1.977c0-.312.149-.461.461-.461h.88c.312 0 .461.163.461.46v1.978h5.174c.312 0 .461.136.461.42 0 .285-.149.42-.461.42z"/><path d="M111.783 80.859h2.479v-.88h-2.479zm0-1.734h2.479v-.975h-2.479zm2.045-3.82h-6.082v.65h6.082z"/><path d="M88.971 30.262c1.816 0 3.224.15 4.403.46 2.154.57 4.294 2.168 6.57 3.875 1.503 1.138 3.075 2.303 4.768 3.265 2.221 1.26 4.023 3.292 5.947 5.446 1.002 1.124 2.031 2.289 3.183 3.413 1.612 1.572 3.441 2.764 5.201 3.915 2.127 1.382 4.132 2.696 5.094 4.308 2.045 3.455 3.766 7.627 4.985 12.07.826 3.008.772 6.476.718 10.16 0 .908-.027 1.83-.027 2.737 0 1.544.081 3.075.176 4.551.176 3.116.352 6.056-.312 8.48-1.422 5.216-3.007 9.253-4.822 12.328-1.666 2.818-4.443 5.459-7.112 8.006q-.956.894-1.869 1.788c-2.384 2.33-5.568 4.092-8.927 5.947-.704.393-1.395.773-2.086 1.165-2.466 1.396-5.473 2.073-8.642 2.791-1.206.271-2.452.555-3.726.881-2.208.582-4.226 1.598-6.163 2.587-2.33 1.179-4.525 2.289-6.42 2.289-2.182 0-4.593-1.029-7.153-2.126-1.802-.773-3.658-1.558-5.622-2.073-4.077-1.07-7.965-2.655-11.866-4.863-1.138-.651-2.303-1.247-3.427-1.829-2.926-1.517-5.703-2.953-7.721-4.931-2.412-2.357-4.213-5.459-6.11-8.751l-1.138-1.951c-1.422-2.411-2.113-5.324-2.83-8.399a118 118 0 0 0-.895-3.63c-.406-1.477-.894-2.9-1.381-4.268-.962-2.763-1.883-5.378-1.883-7.992 0-2.954.907-5.88 1.87-8.968.338-1.097.69-2.235 1.015-3.387 1.22-4.47 2.736-8.141 4.768-11.569 2.384-4.023 4.823-7.207 7.694-10.01 3.021-2.954 6.15-6.015 9.875-8.129 3.658-2.072 7.627-4.145 11.867-5.242 3.549-.922 8.222-1.992 12.963-1.992 1.599 0 3.197-.095 4.741-.176 1.517-.081 2.94-.162 4.322-.162m-.028-3.97c-2.993 0-6.109.353-9.075.353-4.836 0-9.55.962-14.007 2.127-4.606 1.205-8.805 3.36-12.842 5.648-4.09 2.317-7.382 5.5-10.714 8.752-3.32 3.25-5.96 6.814-8.331 10.823-2.33 3.943-3.942 8.02-5.175 12.531-1.192 4.362-3.02 8.656-3.02 13.384s2.207 8.927 3.4 13.276c1.232 4.511 1.815 9.049 4.145 12.991 2.37 4.01 4.565 8.264 7.897 11.515 3.319 3.251 7.884 5.066 11.974 7.383 4.037 2.289 8.237 4.064 12.856 5.27 4.456 1.165 8.994 4.335 13.817 4.335 4.822 0 9.184-3.848 13.64-5.013 4.606-1.205 9.306-1.788 13.343-4.064 4.091-2.316 8.521-4.484 11.853-7.735s7.247-6.611 9.618-10.621c2.33-3.942 3.996-8.778 5.228-13.289 1.192-4.362.285-9.333.285-14.061s.366-9.564-.826-13.926c-1.233-4.511-3.048-9.09-5.392-13.032-2.37-4.01-7.613-5.785-10.931-9.036-3.319-3.251-5.866-7.166-9.957-9.483-4.036-2.289-7.707-6.326-12.327-7.531-1.72-.447-3.562-.583-5.459-.583z"/></g><g filter="url(#c)"><path d="M42.138 31.938 34.19 18.566l5.024-2.986c3.066-1.822 5.818-.933 7.344 1.634 1.525 2.568.96 5.402-2.124 7.235l-2.586 1.537 2.69 4.525zm-1.463-7.928 2.253-1.34c1.81-1.075 2.02-2.574 1.174-3.996-.856-1.44-2.25-1.936-4.06-.86l-2.253 1.338zm13.086 1.197-4.755-10.653 2.433-1.086.788 1.766.118-.053c-.17-1.382.554-2.553 1.77-3.096.275-.122.676-.278.93-.344l1.032 2.315c-.25.018-.815.176-1.227.36-1.393.622-1.984 2.039-1.38 3.392l2.802 6.278zm12.306-4.316c-3.377 1.008-6.105-.622-7.15-4.122-1.031-3.459.368-6.432 3.56-7.384 2.738-.817 5.615.185 6.788 4.118l.246.823-7.803 2.328c.6 1.895 2.056 2.682 3.765 2.172 1.153-.343 1.788-1.071 1.92-1.828l2.574-.768c.104 2.077-1.306 3.887-3.9 4.661m-4.872-6.034 5.27-1.573c-.475-1.517-1.816-2.328-3.34-1.873-1.584.473-2.275 1.99-1.93 3.446M78.71 9.814c-.266-.857-1.052-1.334-2.206-1.209-1.174.128-1.966.797-1.86 1.585.044.6.584.995 1.79 1.146l2.008.192c2.253.253 3.409 1.143 3.61 2.807.216 2.181-1.52 3.904-4.554 4.233-2.947.32-4.842-.815-5.36-3.006l2.776-.301c.277.964 1.1 1.372 2.36 1.235 1.303-.141 2.12-.77 2.028-1.625-.072-.662-.652-1.031-1.834-1.162l-1.902-.205c-2.203-.193-3.437-1.204-3.618-2.87-.231-2.136 1.453-3.745 4.294-4.053 2.776-.302 4.63.859 5.052 2.952zm13.163.366c-.086-.893-.76-1.52-1.914-1.631-1.176-.114-2.087.38-2.142 1.174-.08.597.369 1.093 1.518 1.485l1.928.597c2.155.705 3.105 1.811 2.965 3.481-.232 2.18-2.282 3.513-5.319 3.22-2.95-.286-4.576-1.781-4.639-4.032l2.78.269c.076 1 .798 1.566 2.06 1.688 1.305.127 2.233-.323 2.316-1.179.064-.662-.43-1.142-1.56-1.51l-1.82-.587c-2.119-.636-3.121-1.877-2.96-3.545.207-2.139 2.183-3.372 5.027-3.097 2.78.27 4.36 1.782 4.348 3.918zm16.981-3.354-5.16 14.673-2.635-.926 5.161-14.674zm7.674 7.695-.906 1.9-2.075-.988-2.607 5.469c-.481 1.008-.078 1.462.543 1.758.29.139.785.35 1.104.479l-.961 2.017c-.319-.08-.822-.273-1.443-.569-1.862-.887-2.862-2.483-1.9-4.452l2.801-5.876-1.513-.721.906-1.9 1.513.72 1.202-2.521 2.463 1.174-1.202 2.521zm12.989 3.611-6.58 8.792-1.974-1.412 6.177-9.08zm-10.32 11.954a1.677 1.677 0 0 1-.388-2.338c.525-.734 1.574-.908 2.325-.37.716.512.908 1.574.383 2.308-.537.751-1.604.913-2.32.4"/></g></g><defs><filter id="b" width="112.975" height="112.975" x="23.512" y="24.013" color-interpolation-filters="sRGB" filterUnits="userSpaceOnUse"><feFlood flood-opacity="0" result="BackgroundImageFix"/><feColorMatrix in="SourceAlpha" result="hardAlpha" values="0 0 0 0 0 0 0 0 0 0 0 0 0 0 0 0 0 0 127 0"/><feOffset/><feGaussianBlur stdDeviation="1.147"/><feComposite in2="hardAlpha" operator="out"/><feColorMatrix values="0 0 0 0 0 0 0 0 0 0 0 0 0 0 0 0 0 0 0.3 0"/><feBlend in2="BackgroundImageFix" result="effect1_dropShadow_648_4806"/><feBlend in="SourceGraphic" in2="effect1_dropShadow_648_4806" result="shape"/></filter><filter id="c" width="100.088" height="31.049" x="31.897" y="3.214" color-interpolation-filters="sRGB" filterUnits="userSpaceOnUse"><feFlood flood-opacity="0" result="BackgroundImageFix"/><feColorMatrix in="SourceAlpha" result="hardAlpha" values="0 0 0 0 0 0 0 0 0 0 0 0 0 0 0 0 0 0 127 0"/><feOffset/><feGaussianBlur stdDeviation="1.147"/><feComposite in2="hardAlpha" operator="out"/><feColorMatrix values="0 0 0 0 0 0 0 0 0 0 0 0 0 0 0 0 0 0 0.3 0"/><feBlend in2="BackgroundImageFix" result="effect1_dropShadow_648_4806"/><feBlend in="SourceGraphic" in2="effect1_dropShadow_648_4806" result="shape"/></filter><clipPath id="a"><path d="M0 .5h160v160H0z"/></clipPath></defs></svg>