<svg xmlns="http://www.w3.org/2000/svg"><g stroke="currentColor" stroke-linecap="round" stroke-linejoin="round" stroke-width="2" clip-path="url(#a)"><path d="M17.4 5h2.7c.239 0 .468.12.636.335.17.214.264.505.264.808v13.714c0 .303-.095.594-.264.808-.168.215-.397.335-.636.335H3.9c-.239 0-.468-.12-.636-.335A1.3 1.3 0 0 1 3 19.857V6.143c0-.303.095-.594.264-.808C3.432 5.12 3.66 5 3.9 5h2.7"/><path d="M15.75 12.75 12 16.5l-3.75-3.75M12 16V2"/></g><defs><clipPath id="a"><path stroke="currentColor" d="M0 0h24v24H0z"/></clipPath></defs></svg>