<svg xmlns="http://www.w3.org/2000/svg" fill="currentColor" viewBox="0 0 30 30"><g clip-path="url(#a)"><path d="M12.665 13.337c-.011.049-.052.176.038.165a4.3 4.3 0 0 0 .356-1.369c-.296.076-.172.394-.214.623-.041.206-.127.394-.18.581m2.119 14.526c.003-.165-.027-.593-.274-.559-.011 0-.169.161-.131.206.086.02.217.038.277.102.079.082.03.236.128.255zm-3.142-16.239c.022-.102-.034-.098-.09-.14-.154-.108-.319-.205-.469-.318l.304.559.25-.101zm1.29 16.003q.065.04.13.075c.064-.117.106-.203.09-.214-.09-.09-.18.082-.22.139m-.627-.045q.13.028.263.052c.09-.229.165-.424.157-.461-.011-.053-.101-.113-.093-.191-.113-.08-.248.33-.327.6m8.043-23.607c-.14-.11-.405-.015-.544-.218.023.285.124.555.15.84.011.124-.049.787.079.784l.378-.454c-.255.004-.056-.409 0-.589.042-.142.154-.195-.063-.364M22.56 15.1h.735v-.244h-.735zm-6.355-2.46v.146l.22.052c.076-.213.143-.157.218-.21.053-.037.079-.15-.01-.19-.125.115-.24.303-.432.202zm-5.377-1.271c.139.3.169.716.506.862.034-.21-.168-.296-.24-.446-.063-.135-.026-.416-.266-.416m.656 9.666c-.049.071-.153.052-.146.131l.277.105c.072-.274.38-.154.477-.214.015-.007.082-.187.157-.273.191-.21.442-.237.506-.3.09-.09.176-.664.176-.814 0-.236-.116-.405-.127-.607-.023-.424.191-1.009.045-1.414-.124-.334-.555-.829-.9-.926-.135-.038-.514-.049-.6-.135-.052-.053-.041-.206-.135-.296-.172-.162-.086.202-.086.232-.008.21-.187.21-.319.326-.423.383-1 1.287-1.038 1.856-.015.207.109.465.123.653.008.09 0 .761-.033.783l-.653-.044c-.108.078.859 1.158.99 1.218.026.011.086.011.075-.026-.045-.191-.536-.975-.101-.863.067.177.375.24.349.447-.012.07-.184.225-.02.288.098.038.177-.258.177-.322-.004-.18-.334-.765-.454-.919-.082-.105-.262-.093-.202-.33.255-.037.349.131.476.308l.488 1.06.007-.576.199-.113c.071-.259-.244-.832.202-.757q.082.09.098.21c.03.198.078.926.056 1.113a.4.4 0 0 1-.056.199z"/><path d="M9.362 14.953c-.15.12-.27.274-.409.401-.176.162-.472.233-.382.484.124.353.555.154.814.049.588-.237.678-.461 1.372-.578.049-.007.052-.105.112-.135.102-.052.289-.037.405-.086.162-.067.454-.439.608-.51.15-.071.31-.067.468-.064l-.026-.153c-.124-.045-.255-.424-.352-.409-.135.019-.338.424-.458.562-.09.105-.427.454-.532.488-.214.067-.323-.195-.548-.225-.18-.023-.318.086-.49-.004l-.008-.21.43-.225c.012-.105-.539-.408-.655-.506-.248-.21-.563-.544-.581-.881-.008-.169.097-.356.28-.236.102.067-.014.24 0 .352.027.214.837.915.916.84-.188-.27-.454-.559-.585-.862-.071-.162-.083-.345-.154-.507-.082-.19-.656-1.143-.244-1.154.244-.004.225.236.323.367.124.169.378.315.409.533.078.014.056-.072.045-.124-.027-.154-.113-.263-.05-.435.222-.015.29.15.402.281.034.041.127.056.142.082.03.057 0 .166.034.244.075.18.173.3.383.304.063-.199-.128-.3-.173-.409-.112-.277-.139-.581-.337-.836-.038-.101.25-.127.153-.225-.033-.037-.45-.067-.078-.304l.435.255c.063-.067-.214-.28-.267-.318-.097-.064-.66-.357-.746-.375-.168-.034-.888.097-.99.236-.262.352-.27 1.436-.393 1.863-.124.12-1.927.252-2.291.372a.3.3 0 0 0-.18.123c.454.278.236.81.825 1.05.266.109 1.072.222 1.38.244.3.019.66-.098.91-.049.046.008.394.281.406.304.135.225-.165.255-.327.386z"/><path d="M3.757 21.522c.124-.022.274.02.405 0 .397-.056.787-.18 1.192-.048-.011-.222-.097-.447-.037-.672.018-.07.315-.596.37-.645.154-.123.428-.097.627-.236.124-.09.172-.244.262-.296.315-.18 1.02-.476 1.373-.457.337.015.926.27 1.286.33.12-.02-.02-.428-.023-.533-.045-.784.443-1.586.911-2.182.135-.173.563-.518.634-.686.037-.09-.049-.203-.026-.304.123-.12.468.398.607.255.12-.124-.191-.21-.255-.277-.049-.053-.105-.237-.124-.23-.236.124-.45.376-.667.5-.15.082-.949.46-1.08.49-.514.12-.997-.078-1.106-.622-.09-.457.356-.806.649-1.08-.495.015-1.043-.082-1.534-.217-.33-.09-.345-.143-.58-.293-.15-.093-.215-.026-.36-.236-.218-.303-.398-.84-.368-1.207.015-.161.236-.371.378-.435.51-.229 1.346-.214 1.901-.308.128-.63.195-1.29.563-1.837.52-.176 1.012-.375 1.567-.202.191.06.251.176.379.232.273.12.6.026.697.446.094-.097.244-.097.356-.022.06.037.008.139.041.191.027.041.105.049.128.09.15.266.229.705.562.81l-.026-.405.15.154c.143-.593.386-.525.915-.405-.015-.428-.206-.859-.184-1.286.008-.18.296-1.091.236-1.151-.46.03-.273.007-.382-.203-.079-.15-.394-.409-.503-.562-.112-.158-.622-.923-.674-1.05-.083-.221-.083-.818-.267-.9-.168-.079-.49.037-.386-.334l.233-.048c.06-.21-.315-.192-.075-.405.063 0 .105.037.157.07.064.042.578.458.6.488.124.176.06.398.101.611.09.458.818 1.572 1.17 1.875.135.116.649.424.634.638-.008.082-.188.25-.229.427-.127.533 0 1.091.086 1.62l.326.105c.162.39-.307.337-.468.472-.21.177-.39.716-.469.979-.03.101-.135.236-.142.311-.008.086.067.165.067.248 0 .255-.367.67-.536.862l.405-.075v.304l.51.022c.262.615-.716.162-1.016.308.498.397 1.072.116 1.623.1-.007.188-.146.233-.213.395-.068.168-.09.585-.282.637-.206.06-.202-.124-.322-.221-.124-.098-.577-.289-.686-.131-.203.285.378.285.39.434.022.345-.589.514-.604.608.082.15.101.574.341.457.083-.037.101-.172.27-.12.049.015.394.435.439.402.116-.424.405-.758.619-1.133.25-.442.64-1.372.93-1.706.145-.172.532-.184.708-.356.082-.161-.086-.244-.082-.431 0-.143.108-.259.1-.401l-.543-.372c-.019-.217-.034-.46.09-.652.09-.06.72.067.937.026.034-.007.578-.24.604-.258.03-.023.45-.57.461-.608.049-.139-.097-.424.053-.454.183-.037.262.312.416.394.54.3 1.106.323 1.638.491.124.041.192.191.285.222.236.07.829 0 .983-.214.037-.053.213-1.08.198-1.17-.015-.101-.247-.349-.285-.536-.04-.225.015-.536-.086-.821-.154-.428-.735-.638-1.151-.65.038.14.09.293-.034.41-.236.045-.138-.075-.195-.154-.108-.146-.573-.004-.735.049l.15.277c-.082.116-.232.071-.356.075.026.191-.037.345-.105.518-.015.037-.086.037-.094.075-.01.048.08.292.05.322-.398.105-.38-.54-.807-.45-.116.525-.491.049-.795.041-.187-.003-.123.128-.202.154-.169.053-.195-.169-.236-.191-.102-.056-.267.071-.36-.124-.158-.33.202-.337.067-.574-.15-.258-.487-.153-.51-.176V8.44c.079 0 .431.023.409-.127-.011-.218-.379-.237-.435-.33-.026-.045-.026-.39-.011-.428.007-.015.225-.25.24-.258.139-.087.382.127.483-.173.135-.397-.498-.645-.1-.919l.277.105c-.12-.288-.154-.513-.05-.81.395-.037.192.18.215.368.015.131.112.596.15.712.022.068.067.102.142.087.011-.132-.026-.293.011-.42.041-.143.278-.218.293-.278.071-.232.086-.945.229-1.132.146-.113.344-.071.33.131-.008.105-.154.173-.188.315-.113.428-.023.945-.113 1.384.075.01.05-.08.105-.124.312-.244.255-.345.443-.671.094-.165.446-.915.671-.758l.053.2c-.076.063-.132.074-.2.168-.146.21-.468 1.016-.54 1.083-.048.045-.115.053-.175.05l.086.142h.161L18.96 5.05l.113-.045.157.082-.022.248c.375.172 0 .303-.128.468-.18.229-.322.596-.457.863l-.233.075.102.532c.225-.064.386-.285.64-.304.057-.003.256.027.27.053.11.176-.31.24-.415.349-.057.056-.05.15-.11.21-.123.123-.295.195-.381.352l.81-.101-.102.303c.416.045 1.061.113 1.395.405.146.128.105.315.367.345.233-.093.506-.06.724-.116.619-.157 1.256-.907 1.357-1.537.079-.503-.517-1.061-.918-1.29-.308-.18-.54-.195-.878-.277-.27-.015-1.59.033-1.713.18-.019.022 0 .146-.038.217-.168.337-.566.304-.36.037.06-.078.21-.153.255-.288.158-.446.132-1.058.12-1.511 0-.113-.36-.746-.416-.78-.06-.034-.454.221-.498-.188-.02-.168.116-.39-.105-.502a4 4 0 0 0-.428-.105c-.3-.011-.502.131-.791.101-.214-.022-.214-.191-.064-.27.056-.03.469-.109.551-.112.173-.008.304.052.454.052.446 0 .874-.124 1.222.199.139.127.244.416.33.484.083.06.259.07.371.135.15.086.3.318.488.375.157.048.757-.042.982-.12-.607-.353-1.2-.683-1.717-1.17-.352-.33-.817-.638-1.166-.739-.469-.135-.952.041-1.436-.041-.484-.083-1.076.225-1.601.199l-.128.468 1.035.251c.222.147-.367.477-.45.567-.273.303-.603 1.24-.682 1.65-.019.108.019.247-.011.34-.075.237-.641-.116-.791-.157-.312-.082-.78-.082-1.103-.064-.138.008-.255.105-.382.08-.315-.068-.829-.773-1.264-.743v-.3c.514-.083.878.558 1.335.506.12-.015.225-.086.36-.098.484-.048.934.083 1.399.184.063-.371.273-.592.43-.888.076-.14.095-.33.162-.447.067-.112.199-.123.217-.24v-.075c-.116-.04-.36-.12-.43-.206-.057-.067-.05-.157-.083-.214-.034-.052-.101-.048-.128-.135-.056-.195-.015-.344.042-.49l-.203-.004C7.71 1.796 1.8 7.705 1.8 14.998c0 1.252.57 2.254.896 3.4.3 1.058.333 2.273.873 3.207zM18.792 9.036c.168-.07.412.094.303.252-.078.112-.397-.05-.303-.252m-1.777.987c.176-.124.356.097.19.27-.202.21-.337-.165-.19-.27M13.663 3.03l.007.22-.195-.007c-.135-.195.015-.435.188-.213m-1.924 1.26c.008-.076-.022-.09.075-.076.173.05.754.83.735.987-.004.052-.112.236-.154.255-.258.146-.495-.297-.75-.338l-.007-.195h.202c.034-.225-.127-.416-.105-.634zM4.642 20.81c.048.214.04.457-.248.401-.075-.232-.041-.442.248-.401m-.405-7.942c.172.143.03.402.247.338l.008.345c-.064.049-.593-.266-.608-.341-.045-.233.09-.56.353-.345zm-.739-.588c.094-.143.608.105.42.292-.019.019-.427.236-.442.218zm19.062 2.34h.735v-.27h-.735z"/><path d="M22.234 3.956a5 5 0 0 1-.27.465c-.162.243-.124.528-.207.652-.078.12-.273.154-.33.308.33-.053 1.061.06 1.29.307.124.131.431.499.525.637.686 1.017-.022 2.359-1.038 2.805-.214.094-.769.161-.848.323-.127.266.27.877.274 1.23 0 .142-.176 1.09-.236 1.188-.026.045-.491.356-.57.394-.173.082-.401.127-.593.16-.42-.153-.87-.205-1.3-.322-.068-.018-.12-.1-.188-.116-.127-.034-.262.011-.383-.022-.127-.038-.243-.368-.337-.293-.015.21-.262.39-.326.559-.083.217-.041.412-.229.634-.277.326-.514-.05-.652.363l.094.323.25-.053c-.022.304.263.525.36.784.113.311.034.585.147.866.184-.007.345.113.51.15.506.116.682.116 1.18.341.642.289.95.462 1.276 1.11.097.195.153.386.108.608-.086.416-.735 1.27-1.06 1.552-.237.206-.683.191-.74.555l.124 1.496c.068.109.533.191.634.277.071.06.067.17.116.214.041.045.162.064.244.139.225.213.18.724.075.993-.064.165-.203.237-.277.342-.05.07-.042.21-.124.273-.405.32-.199-.465-.135-.645.045-.123.206-.183.15-.34-.117-.387-1.061-.69-1.185-.95a5 5 0 0 1-.079-.584c.004-.12.098-.207.094-.296 0-.034-.172-.57-.203-.657-.052-.15-.27-.202-.067-.45.139-.168.454-.16.394-.547.15-.098.356-.023.498-.086.027-.012.42-.315.458-.357.206-.22.615-.956.547-1.256-.056-.25-.705-.806-.952-.922-.604-.289-1.076-.367-1.747-.33-.143.008-.383.143-.484.026-.176-.206.056-.303.09-.42.217-.69-.409-.97-.345-1.638l-.371.667c.082.615-.409.893-.724 1.354-.09.131-.483.787-.476.892.341.113.443-.483.829-.375.13.045.142.383.135.503.086-.03.69-.03.708 0 .064.097-.041.277-.176.303-.3.057-.814.012-1.162.057-.116.015-.225.112-.33.127-.143.019-.263-.079-.424.019-.322.596-.72 1.162-.948 1.8.198.172.165-.042.255-.098.202-.131.25.128.284.128.143.01.48-.094.597-.09.217.007.483.277.66.24.037-.008.03-.09.067-.102.18-.052.154.064.225.12.037.03.116.02.135.042.03.033-.004.135.064.217.165.206.588.244.607.506-.049.169-.769-.018-.892-.172-.075-.094-.072-.252-.12-.285-.053-.038-1.103-.086-1.245-.071a8 8 0 0 0-.75.112 6 6 0 0 0-.517.345c-.042.056-.057.251-.102.352-.108.244-.716 1.185-.082.957-.026-.26.071-.158.184-.244.352-.27.517-.446.588-.908l.248-.007c.03.217-.06.431-.18.607-.143.203-.499.435-.615.63-.083.135-.011.379-.323.39 0 .274.32-.056.387-.093.086-.05.183-.064.27-.11.078.346-.255.357-.458.533l.203.027c.07.303-.128.266-.304.43-.019.207.574-.142.626-.183.139-.116.251-.424.319-.442.364-.113 0 .487-.086.573-.162.165-.488.285-.702.364l-.562.375c.165.161.862.03.911.101.128.184-.349.304-.476.3-.308-.008-.622-.289-.941-.247-.038.168.135.07.251.127.105.049.225.203.184.33-.015.052-.229.386-.266.397-.177.06-.26-.104-.424-.093.034.232-.09.476-.33.51-.195.026.026-.293.03-.383.008-.097-.041-.187-.056-.281-.308-.052-.405.394-.54.45-.33.135-.101-.405-.244-.398-.019 0-.172.184-.232.226-.184.116-.735.277-.911.157-.36-.247.61-.225.633-.383l.128-.352c-.184.03-.252-.217-.338-.247-.251-.087-.937.15-1.196.258-.139.06-.247.27-.446.169l-.075-.285c.075-.109.705-.199.855-.3.071-.049.206-.292.296-.379.124-.12.39-.153.349-.386-.495-.067-.971-.24-1.459-.345-.157-.034-.412.049-.495-.112-.093-.177.012-.263.192-.244.168.019 1.188.356 1.256.293-.02-.162-.21-.21-.15-.405.277-.057.31.296.558.378.165.056.338.019.507.027l-.064-.117c-.214-.157-.968-.457-1.103-.618-.063-.08-.06-.135-.052-.23.274-.033.48.203.716.323.113.06.236.087.36.15.094.049.109.214.244.113-.229-.296-1.35-1.2-1.294-1.556l.128-.146c-.297-.068-.638-.233-.938-.256-.18-.015-.82.105-.99.177-.314.139-.348.495-.453.558-.139.083-.525-.045-.686.128l-.079.472c.36.18.262.36.311.664.023.128.165.439.049.518-.154.105-.431-.098-.589-.128-.476-.086-1.035-.037-1.518-.052-.113-.004-.236-.068-.353-.05a13.4 13.4 0 0 0 1.972 2.415.6.6 0 0 0 .143.012c.3-.083.169-.656.289-.731.116-.072.288.16.457.03.06.247-.169.427-.199.64-.01.08.14.316.15.488.386.323.401.308.825.585.049.011.611.248.645.248.214 0 .233.13.382.12.034 0 .518.04.544.048.041.012.086.15.161.207.233.176.731.438 1.02.453.195.008.454-.161.683-.097.056.24-.124.232-.233.352-.15.169-.049-.052-.225.086.476.188.952.338 1.455.47.142-.252.041-.117.067-.398-.28.093-.262.172-.573.13.034-.43.007-.333.37-.385l-.048-.574c-.24-.026-.397-.36-.51-.412-.153-.072-.892-.034-.806-.35.053-.082.131-.115.199-.187-.199-.007-.39.098-.536-.048-.083-.128.071-.38.18-.435.108-.057.31.225.446.24l.011.16c-.034.035-.067.05-.101.087.262.008.517.004.776.06.195.236.454.585.784.637.153.027 1.016-.018 1.203-.037.353-.041.551-.206.705-.514.049-.097.053-.285.105-.352.086-.105.649.03.814.052.326.042.46.06.783.132.195.045.664-.03.461.25-.198.132-1.106-.1-1.387-.07l-.082.12a.5.5 0 0 0 .202.153c.364.139.791.18 1.155.263.172.041.319.142.495.172.116 0 .27-.412.48-.307l-.008.195-.397.236c-.026.105.142.101.154.157.082.36-.525.222-.54-.037l-.833-.045c.008.082.124.052.207.124.146.123.434.408.588.555.289.277.225.24.293.618l-.195-.007c-.094-.394-.143-.323-.458-.578l-.075.255c-.176.064-.529-.16-.585-.307-.045-.116.135-.308-.195-.349-.04.011-.228.326-.232.375-.008.176.247.33.255.506.007.098-.053.372-.079.488-.019.086-.255.334-.281.405.034 0 .465-.105.495-.117.589-.27 1.09-.363 1.8-.7.858-.41 1.593-.473 2.362-.75a.5.5 0 0 0 .01-.132c-.03-.416-.57-.697-1-.738-.267-.027-.514.18-.776.07-.064-.026-.379-.296-.398-.363-.06-.202.135-.27.071-.42-.506-.439-1.413-.72-2.073-.656-.345.034-.641.255-.993.225-.15-.075-.225-.649-.278-.791-.056-.154-.232-.308-.259-.503-.06-.446.45-.315.724-.397.169-.049.296-.199.435-.274.217-.116.904-.386.949-.626.022-.124-.023-.259.014-.394.03-.123.24-.307.312-.45.116-.232.13-.517.285-.735.086-.056.566.113.536.285l.63-.056.048.251c-.183.053-.34.12-.536.147-.108.015-.367-.02-.416.015-.022.015-.034.138-.086.19-.068.072-.21.12-.251.207-.113.247.112.367.078.525-.01.06-.18.052-.153.157l.247.184-.052.191-.724.102c-.037.026-.045.31-.236.39-.101.04-.169-.03-.266-.015-.255.037-.18.333-.252.386-.123.093-.543.049-.697.011.15.3.03.78.484.765.172-.008.213-.161.363-.195.225-.052.506.026.739-.022.386-.08.529-.567.829-.597.187-.018.45.079.427.304.165-.161.611-.248.611.075 0 .281-.191.139-.334.135-.067 0-.146.053-.195.045-.052-.008-.044-.131-.105-.143-.12-.022-.566.09-.536.29.135.03.54.175.634.254.101.086.472.649.525.799.022.064.007.146.011.217.049.05.641-.1.776-.09.266.023.604.304.9.319l.488.607c.037.154.052.293.044.432 1.272-.518 2.494-.799 3.529-1.665q-.049.025-.098.037c-.082.02-.157-.033-.191-.03-.06.012-.056.132-.098.14-.18.037-.262-.215-.168-.353.108-.023.21-.034.198.09h.072c.082-.233.243-.128.36-.17.07-.022.063-.19.225-.13v.153c1.177-1.046 2.568-2.354 3.314-3.757.532-1.008.54-2.036.799-3.175.213-.945.176-1.437.176-2.449 0-.39.142-2.67.108-3.052-.16-1.849-.382-1.972-1.226-3.525-.314-.573-.663-.88-1.053-1.402-.521-.694-1.669-1.365-2.313-1.942-.488-.435-.784-1.26-1.328-1.62zm-2.711 17.113c-.079-.064-.079-.165-.071-.26.468-.104.326.47.07.26M6.925 23.55l-.052-.559c.045-.041.42.064.446.109.112.184-.192.517-.398.45zm3.195 2.006c.033.187-.435.401-.507.33-.026-.027 0-.177.05-.229.04-.049.426-.251.457-.101M21.816 12.58q0-.13.128-.128h.244q.1.001.123.086h.923v-.453q-.002-.13.127-.128h.244q.128.002.127.128v.45l1.369.003c.09 0 .127.045.12.135l-.034.36q-.01.126-.139.117l-.243-.012c-.087-.003-.124-.052-.117-.135l.023-.232h-2.403v.285q0 .128-.128.127h-.244c-.086 0-.127-.045-.127-.127v-.476zm.69 2.752a.14.14 0 0 1-.079.019h-.243q-.128 0-.128-.128v-1.005q0-.13.128-.131h.244a.13.13 0 0 1 .086.026h2.34q.128 0 .127.128v.978q.001.13-.128.128h-.243a.2.2 0 0 1-.08-.019h-2.027zm1.417.618v2.262q.002.128-.127.127h-.244c-.086 0-.127-.045-.127-.127V15.95q-.001-.13.127-.128h.244q.128-.001.127.127m-1.24.248c0 .394 0 .739-.008 1.027q-.006.438-.034.746a3 3 0 0 1-.078.507.8.8 0 0 1-.154.315.12.12 0 0 1-.09.045.15.15 0 0 1-.086-.027l-.11-.067q-.045-.033-.09-.071c-.025-.027-.037-.057-.025-.094q.085-.274.127-.941.039-.666.045-1.804c0-.09.041-.131.128-.131h.243q.13-.001.128.499zm-.132-2.88q.035 0 .064.012h2.122q.128.002.128.127v.416q0 .131-.128.132h-.244a.14.14 0 0 1-.082-.023h-1.788s-.042.015-.072.015h-.243q-.13.001-.128-.127v-.42q-.001-.13.128-.128h.243zm-.127-.27q-.001-.116.127-.116h1.939q.128.002.127.116c0 .075-.041.117-.127.117h-1.939c-.086 0-.127-.042-.127-.117m2.208 2.73q-.001-.13.128-.131h.243q.13.001.128.131v3.056q.001.128-.128.127h-.243c-.087 0-.128-.045-.128-.127zm.495 4.21h-1.432v.526h1.162q.129-.002.128.127v1.601q.001.142-.14.12l-.663-.086c-.075-.008-.108-.041-.108-.101q0-.023.003-.034.033-.123.154-.101l.255.034v-1.328h-.791v1.729q.001.128-.128.127h-.243q-.13.001-.128-.127v-1.729h-.682v1.466q.001.13-.128.128h-.243q-.13.001-.128-.128V20.53q-.001-.13.128-.128h.243q.063 0 .098.03a.1.1 0 0 1 .034.079h.682v-.525h-1.294q-.128-.002-.127-.116-.001-.114.127-.116H23.2v-.548q-.001-.128.127-.127h.244c.086 0 .128.045.128.127v.548h1.432q.128-.001.127.116.002.117-.127.116z"/><path d="M23.797 15.1h.686v-.244h-.686zm0-.48h.686v-.27h-.686zm.566-1.058H22.68v.18h1.683z"/><path d="M17.483 1.095c.503 0 .892.041 1.219.127.596.158 1.188.6 1.818 1.073.416.315.851.637 1.32.903.615.35 1.113.911 1.646 1.508.277.31.562.633.881.945.446.434.952.764 1.44 1.083.588.383 1.143.746 1.41 1.193.566.956 1.042 2.11 1.38 3.34.228.833.213 1.793.198 2.813 0 .25-.008.506-.008.757 0 .427.023.851.05 1.26.048.862.097 1.676-.087 2.347-.394 1.444-.832 2.56-1.335 3.412-.461.78-1.23 1.511-1.968 2.216q-.265.247-.518.495c-.66.645-1.54 1.132-2.47 1.646l-.578.322c-.682.387-1.515.574-2.392.773q-.502.11-1.031.244c-.611.16-1.17.442-1.706.716-.645.326-1.252.633-1.777.633-.604 0-1.271-.285-1.98-.588-.498-.214-1.012-.431-1.556-.574a13.6 13.6 0 0 1-3.284-1.346c-.315-.18-.638-.345-.949-.506-.81-.42-1.578-.818-2.137-1.365-.667-.652-1.166-1.511-1.69-2.422l-.316-.54c-.393-.668-.585-1.474-.783-2.325a33 33 0 0 0-.248-1.005 17 17 0 0 0-.382-1.18c-.266-.766-.521-1.49-.521-2.213 0-.817.25-1.627.517-2.482.094-.304.191-.619.281-.938.338-1.237.758-2.253 1.32-3.202.66-1.113 1.335-1.995 2.13-2.77.836-.818 1.702-1.665 2.733-2.25 1.012-.574 2.11-1.148 3.284-1.451.983-.255 2.276-.552 3.588-.552.443 0 .885-.026 1.313-.048.42-.023.813-.045 1.196-.045M17.483 0c-.828 0-1.69.097-2.512.097-1.338 0-2.643.267-3.877.59-1.274.333-2.437.929-3.554 1.563-1.132.64-2.043 1.522-2.966 2.422-.918.9-1.65 1.886-2.306 2.996-.645 1.09-1.09 2.22-1.432 3.468C.506 12.344 0 13.532 0 14.841c0 1.308.611 2.47.941 3.674.341 1.249.503 2.505 1.147 3.596.657 1.11 1.264 2.287 2.186 3.187.919.9 2.182 1.402 3.315 2.044a14.6 14.6 0 0 0 3.558 1.458c1.233.323 2.49 1.2 3.824 1.2 1.335 0 2.542-1.065 3.776-1.387 1.274-.334 2.576-.495 3.693-1.125 1.132-.641 2.358-1.241 3.28-2.141.923-.9 2.006-1.83 2.663-2.94.644-1.09 1.105-2.43 1.447-3.678.33-1.207.079-2.584.079-3.892 0-1.309.1-2.647-.23-3.855-.34-1.248-.843-2.516-1.491-3.607-.657-1.11-2.108-1.6-3.026-2.5-.919-.9-1.624-1.984-2.756-2.625-1.117-.634-2.133-1.751-3.412-2.085-.476-.124-.986-.161-1.51-.161z"/></g><defs><clipPath id="a"><path d="M0 0h30v30H0z"/></clipPath></defs></svg>